<?xml version="1.0" encoding="utf-8"?>
<!-- Generator: Adobe Illustrator 26.2.0, SVG Export Plug-In . SVG Version: 6.00 Build 0)  -->

<?xml-stylesheet href="~/css/EFICAAWeb.css"?>


<svg version="1.1" id="Layer_1" xmlns="http://www.w3.org/2000/svg" xmlns:xlink="http://www.w3.org/1999/xlink" x="0px" y="0px"
	 viewBox="0 0 1028.4 1170.1" style="enable-background:new 0 0 1028.4 1170.1;" xml:space="preserve">
	<style type="text/css">
		.svgfont {
    font-family: Arial !important;
    font-weight: bold;
}
		.st0 {
			fill: #2068b2;
		}
		.st1{fill:none;stroke:#c6eaf9;stroke-width:2;stroke-miterlimit:10;}

		.st2 {
			fill: #c6eaf9;
		}

		.st3 {
			fill: #223d78;
		}

		.st4 {
			fill: #c3e8f8;
		}
	
		.st6 {
			font-size: 18.5755px;
			fill: #e5f5fc
		}

		.st7 {
			fill: #a3dcf6;
		}

		.st8 {
			fill: #83c8ee;
		}

		.st9 {
			fill: #64b5e4;
		}

		.st10 {
			fill: #327fc2;
		}
		.st11{fill:#4b9dd5;}
		.st12{letter-spacing:-1;}

		.st13 {
			fill: #04509d;
		}

		.st14 {
			fill: #223d78;
		}

		.st15 {
			fill: #00c4ff;
		}
		.st16{font-size:66.0782px;}

		.st17 {
			fill: #223d78;
			stroke: #000000;
			stroke-width: 0.75px;
			stroke-miterlimit: 10;
		}
		.st18{fill:#FFFFFF;}
		.st19{font-size:20.6747px;}

		.st20 {
			fill: #c6eaf9;
		}

		.st21 {
			fill: #dde9ee;
		}
		.st22 {
			fill: #01405c;
		}
		.st21 {
			fill: #dde9ee;
		}
	
		.st23{font-size:20.8481px;}

		.st24 {
			fill: #04509d;
			stroke: #000000;
			stroke-width: 0.75px;
			stroke-miterlimit: 10;
		}

		.st25 {
			fill: #327fc2;
			stroke: #000000;
			stroke-width: 0.75px;
			stroke-miterlimit: 10;
		}

		.st26 {
			fill: #4b9dd5;
			stroke: #000000;
			stroke-width: 0.75px;
			stroke-miterlimit: 10;
		}

		.st27 {
			fill: #64b5e4;
			stroke: #000000;
			stroke-width: 0.75px;
			stroke-miterlimit: 10;
		}

		.st28 {
			fill: #83c8ee;
			stroke: #000000;
			stroke-width: 0.75px;
			stroke-miterlimit: 10;
		}

		.st29 {
			fill: #2068b2;
			stroke: #000000;
			stroke-width: 0.75px;
			stroke-miterlimit: 10;
		}
		.st30{font-size:14.8585px;}
		.st31{font-size:16.014px;}
		.st32{font-size:14.0688px;}

		.st33 {
			fill: #a3dcf6;
			stroke: #000000;
			stroke-width: 0.75px;
			stroke-miterlimit: 10;
		}
		.st34{font-size:5.9029px;}
		.st35{fill:none;stroke:#020202;stroke-width:0.25px;stroke-miterlimit:10;}

		.st36 {
			fill: #c6eaf9;
			stroke: #020202;
			stroke-width: 0.25px;
			stroke-miterlimit: 10;
		}
		.st37{font-size:3.6881px;}

		.st38 {
			fill: #c3e8f8;
			stroke: #000000;
			stroke-width: 0.75px;
			stroke-miterlimit: 10;
		}
		.st39{fill:#474200;}
		.st40{font-size:4.237px;}
		.st41{font-size:3.9289px;}
		.st42{font-size:3.2163px;}
		.st43{font-size:4.1792px;}
		.st44{font-size:2.0511px;}

		.st17:hover, .st24:hover, .st25:hover, .st26:hover, .st27:hover, .st28:hover, .st29:hover, .st33:hover, .st38:hover {
		 cursor: pointer;
			position: relative;
			margin: 0 auto;
			stroke-width: 2px;
			stroke: white;
			-webkit-filter: drop-shadow(12px 12px 7px rgba(0,0,0,0.5));
			filter: drop-shadow(12px 12px 7px rgba(0,0,0,0.5));
	}
		.st50{
			fill:#c6eaf9;
		}
	</style>

<g class="svgfont"> 
<!--Legend-->
<g>
	<g class="st50">
		<circle cx="51.4" cy="837.7" r="7.9"/>
		<circle cx="70.9" cy="841.5" r="6.1"/>
		<circle cx="31.6" cy="841.5" r="6.1"/>
		<path d="M25.6,849.3c0,0,3,5.9,10.3,1.9c0,0-1.9,5-1.3,13.2H20.1C20.1,864.4,18.9,853.3,25.6,849.3z"/>
		<path d="M77,849.3c0,0-3,5.9-10.3,1.9c0,0,1.9,5,1.3,13.2h14.5C82.3,864.4,83.5,853.3,77,849.3z"/>
		<path d="M43.3,846.4c0,0,6.8,9.6,15.9,0.1c0,0,9.1,2.1,6.4,22.5H37.3C37.3,869,33.7,852,43.3,846.4z"/>
		
	</g>
	<g>
		<path class="st0" d="M99.1,855.6c-1.2,0-2.1-0.1-3.1-0.5c-0.9-0.4-1.7-0.8-2.4-1.4c-0.7-0.7-1.3-1.4-1.6-2.4
			c-0.4-1.1-0.6-2-0.6-3.4c0-1.2,0.2-2.3,0.6-3.2c0.4-0.9,0.9-1.8,1.6-2.5c0.7-0.7,1.4-1.2,2.4-1.6c0.9-0.5,2-0.6,3.2-0.6
			c0.7,0,1.3,0,1.7,0.1c0.5,0.1,1.1,0.1,1.3,0.2c0.5,0.1,0.9,0.2,1.3,0.5c0.4,0.1,0.7,0.4,0.9,0.5v3.7H104c-0.2-0.1-0.5-0.4-0.7-0.6
			c-0.4-0.2-0.6-0.5-1.1-0.7c-0.4-0.2-0.8-0.4-1.3-0.6c-0.5-0.1-0.9-0.2-1.3-0.2c-0.6,0-1.1,0.1-1.6,0.2s-0.9,0.5-1.3,0.8
			c-0.4,0.4-0.7,0.9-0.9,1.4c-0.2,0.7-0.4,1.3-0.4,2.3s0.1,1.7,0.5,2.4c0.2,0.7,0.6,1.2,1.1,1.4c0.5,0.4,0.9,0.7,1.3,0.8
			c0.5,0.1,1.1,0.2,1.4,0.2c0.5,0,0.9-0.1,1.3-0.2c0.5-0.1,0.9-0.4,1.3-0.6s0.7-0.5,0.9-0.6c0.2-0.2,0.6-0.5,0.7-0.6h0.5v3.7
			c-0.4,0.1-0.7,0.4-1.1,0.5s-0.7,0.2-1.1,0.4c-0.5,0.1-0.9,0.2-1.3,0.4C100.5,855.6,99.8,855.6,99.1,855.6L99.1,855.6z"/>
			
		<path class="st0" d="M121.9,847.8c0,2.4-0.7,4.3-2,5.7s-3.3,2.1-5.7,2.1c-2.4,0-4.3-0.7-5.7-2.1c-1.3-1.3-2-3.3-2-5.7
			c0-2.4,0.7-4.3,2-5.7s3.3-2,5.7-2c2.4,0,4.3,0.7,5.7,2C121.2,843.4,121.9,845.4,121.9,847.8z M116.8,851.7
			c0.4-0.5,0.7-1.1,0.8-1.6c0.2-0.6,0.2-1.3,0.2-2.1c0-0.9-0.1-1.7-0.4-2.3c-0.2-0.7-0.5-1.2-0.8-1.4c-0.4-0.5-0.7-0.7-1.2-0.9
			c-0.5-0.2-0.9-0.2-1.3-0.2c-0.5,0-0.9,0.1-1.3,0.2c-0.5,0.1-0.8,0.5-1.2,0.9s-0.6,0.9-0.8,1.6c-0.2,0.8-0.4,1.4-0.4,2.3
			s0.1,1.7,0.4,2.3c0.2,0.7,0.5,1.2,0.8,1.6c0.4,0.5,0.7,0.7,1.2,0.9c0.5,0.2,0.9,0.2,1.3,0.2c0.5,0,1.1-0.1,1.3-0.4
			C116,852.4,116.5,852,116.8,851.7L116.8,851.7z"/>
		<path class="st0" d="M138.5,855.3h-3.8l-6.4-10.3v10.3h-3.6v-15h4.6l5.5,8.7v-8.7h3.6V855.3z"/>
		<path class="st0" d="M154.3,850.6c0,1.4-0.7,2.7-1.9,3.7c-1.3,0.9-3,1.3-5.1,1.3c-1.3,0-2.3-0.1-3.3-0.4c-0.9-0.2-1.8-0.5-2.6-0.8
			v-3.7h0.5c0.8,0.7,1.7,1.2,2.7,1.4c1,0.3,1.9,0.6,2.9,0.6c0.2,0,0.6,0,0.9-0.1c0.4,0,0.7-0.1,0.9-0.2c0.4-0.1,0.6-0.2,0.7-0.5
			c0.2-0.2,0.4-0.5,0.4-0.8c0-0.4-0.1-0.6-0.5-0.8c-0.2-0.2-0.7-0.5-1.3-0.6c-0.6-0.1-1.2-0.2-1.8-0.4c-0.7-0.1-1.3-0.2-1.8-0.5
			c-1.3-0.5-2.1-0.9-2.7-1.7c-0.6-0.8-0.8-1.6-0.8-2.6c0-1.3,0.7-2.5,1.9-3.4s2.9-1.3,4.8-1.3c1.1,0,1.9,0.1,3,0.4
			c0.9,0.2,1.8,0.5,2.5,0.7v3.4h-0.5c-0.6-0.5-1.3-0.9-2.3-1.3c-0.9-0.4-1.8-0.5-2.7-0.5c-0.4,0-0.7,0-0.9,0.1
			c-0.4,0-0.7,0.1-0.9,0.2c-0.2,0.1-0.5,0.2-0.7,0.5c-0.2,0.2-0.2,0.5-0.2,0.7c0,0.4,0.1,0.7,0.5,0.9c0.4,0.2,0.9,0.5,1.7,0.6
			c0.6,0.1,1.1,0.2,1.6,0.4c0.5,0.1,1.1,0.2,1.6,0.5c1.2,0.4,2,0.9,2.5,1.6C154,848.7,154.3,849.6,154.3,850.6L154.3,850.6z"/>
		<path class="st0" d="M170.1,850c0,1.8-0.6,3.3-1.7,4.2c-1.2,0.9-2.9,1.4-5,1.4c-2.1,0-3.9-0.5-5-1.4c-1.2-1.1-1.7-2.4-1.7-4.2
			v-9.5h3.9v9.3c0,1.1,0.2,1.8,0.7,2.3c0.5,0.5,1.2,0.8,2.1,0.8s1.7-0.2,2.1-0.7c0.5-0.5,0.7-1.3,0.7-2.4v-9.3h3.9v9.5H170.1
			L170.1,850z"/>
		<path class="st0" d="M189.5,855.3h-3.9v-10l-2.7,6.5h-2.6l-2.7-6.5v10H174v-15h4.5l3.4,7.5l3.4-7.5h4.5v15H189.5L189.5,855.3z"/>
		<path class="st0" d="M204.1,855.3h-10.8v-15h10.8v3h-7v2.6h6.5v3h-6.5v3.8h7V855.3z"/>
		<path class="st0" d="M221.8,855.3H217l-4.1-5.5H211v5.5h-3.9v-15h6.5c0.9,0,1.6,0,2.3,0.1c0.7,0.1,1.3,0.4,1.8,0.7
			c0.6,0.4,1.1,0.8,1.3,1.3c0.4,0.5,0.5,1.3,0.5,2c0,1.2-0.2,2-0.8,2.7c-0.6,0.7-1.3,1.3-2.1,1.7L221.8,855.3L221.8,855.3z
			 M215.8,845c0-0.4-0.1-0.7-0.2-1.1c-0.1-0.2-0.5-0.5-0.8-0.7c-0.2-0.1-0.6-0.2-0.9-0.2h-2.6v4.1h1.2c0.6,0,1.2,0,1.6-0.1
			c0.5-0.1,0.8-0.2,1.1-0.5c0.2-0.2,0.5-0.5,0.6-0.7L215.8,845L215.8,845z"/>
		<path class="st0" d="M235.5,850.6c0,1.4-0.7,2.7-1.9,3.7c-1.3,0.9-3,1.3-5.1,1.3c-1.3,0-2.3-0.1-3.3-0.4c-0.9-0.2-1.8-0.5-2.6-0.8
			v-3.7h0.5c0.8,0.7,1.7,1.2,2.7,1.4c1.1,0.4,1.9,0.6,2.9,0.6c0.2,0,0.6,0,0.9-0.1c0.4,0,0.7-0.1,0.9-0.2c0.4-0.1,0.6-0.2,0.7-0.5
			c0.2-0.2,0.4-0.5,0.4-0.8c0-0.4-0.1-0.6-0.5-0.8c-0.2-0.2-0.7-0.5-1.3-0.6c-0.6-0.1-1.2-0.2-1.8-0.4c-0.7-0.1-1.3-0.2-1.8-0.5
			c-1.3-0.5-2.1-0.9-2.7-1.7c-0.6-0.8-0.8-1.6-0.8-2.6c0-1.3,0.7-2.5,1.9-3.4c1.3-0.9,2.9-1.3,4.8-1.3c1.1,0,1.9,0.1,3,0.4
			c0.9,0.2,1.8,0.5,2.5,0.7v3.4h-0.2c-0.6-0.5-1.3-0.9-2.3-1.3c-0.9-0.4-1.8-0.5-2.7-0.5c-0.4,0-0.7,0-0.9,0.1
			c-0.4,0-0.7,0.1-0.9,0.2c-0.2,0.1-0.5,0.2-0.7,0.5c-0.2,0.2-0.2,0.5-0.2,0.7c0,0.4,0.1,0.7,0.5,0.9c0.4,0.2,0.9,0.5,1.7,0.6
			c0.6,0.1,1.1,0.2,1.6,0.4c0.5,0.1,1.1,0.2,1.6,0.5c1.2,0.4,2,0.9,2.5,1.6C235.3,848.7,235.5,849.6,235.5,850.6L235.5,850.6z"/>
	</g>
								<g class="st50">
		<polygon points="54.1,918.1 30.4,937.9 41.3,941.4 34,958.3 57.2,939.6 46.6,936.7 		"/>
		<path d="M23.6,944.1c0.1-1.9-4.3-23,21.8-27.6c0,0-1.3,2-0.5,2.9c1.3,1.3,5.9-2.6,5.7-4.4c-0.2-1.8-4.3-5.7-5.9-4.2
			c-0.7,0.7,0.6,2.5,0.6,2.5s-28.5,1.9-24.7,31.6C20.5,945.6,23.3,947.5,23.6,944.1L23.6,944.1z"/>
		<path d="M55.1,918.5c1.4,1.3,20.9,10.5,9,34c0,0-0.8-2.3-2-2c-1.8,0.2-1.4,6.4,0.1,7.3s7.1,0,6.8-2.1c-0.1-0.9-2.3-1.1-2.3-1.1
			s15.8-23.9-10.2-38.9C55.9,915.3,52.6,916.1,55.1,918.5z"/>
		<path d="M57.8,958.9c-1.6,0.6-16.9,12.5-30.9-6.7c0,0,2.1,0.2,2.5-0.8c0.6-1.6-4.4-3.8-5.9-2.9c-1.3,0.9-3,5.7-1.2,6.4
			c0.8,0.2,1.8-1.3,1.8-1.3s12.7,22.4,35.3,7.7C60.1,960.8,60.7,957.8,57.8,958.9L57.8,958.9z"/>
		 <animate id="hg2" attributeName="opacity" values="0;1;0" dur="4s" begin="hg0.begin+1s;hg0.end+1s" repeatCount="indefinite"/>

	</g>
	<g>
		<path class="st0" d="M97,944.3c-1.2,0-2.1-0.1-3.1-0.5c-0.9-0.4-1.7-0.8-2.4-1.4c-0.7-0.7-1.3-1.4-1.6-2.4c-0.4-1.1-0.6-2-0.6-3.4
			c0-1.2,0.2-2.3,0.6-3.2s0.9-1.8,1.6-2.5c0.7-0.7,1.4-1.2,2.4-1.6c0.9-0.5,2-0.6,3.2-0.6c0.7,0,1.3,0,1.7,0.1
			c0.5,0.1,1.1,0.1,1.3,0.2c0.5,0.1,0.9,0.2,1.3,0.5c0.4,0.1,0.7,0.4,0.9,0.5v3.7h-0.5c-0.2-0.1-0.5-0.4-0.7-0.6
			c-0.4-0.2-0.6-0.5-1.1-0.7c-0.4-0.2-0.8-0.4-1.3-0.6c-0.5-0.1-0.9-0.2-1.3-0.2c-0.6,0-1.1,0.1-1.6,0.2c-0.6,0.1-0.9,0.5-1.3,0.8
			c-0.4,0.4-0.7,0.9-0.9,1.4c-0.2,0.7-0.4,1.3-0.4,2.3s0.1,1.7,0.5,2.4c0.2,0.7,0.6,1.2,1.1,1.4c0.5,0.4,0.9,0.7,1.3,0.8
			c0.5,0.1,1.1,0.2,1.4,0.2s0.9-0.1,1.3-0.2c0.5-0.1,0.9-0.4,1.3-0.6s0.7-0.5,0.9-0.6c0.2-0.2,0.6-0.5,0.7-0.6h0.5v3.7
			c-0.4,0.1-0.7,0.4-1.1,0.5s-0.7,0.2-1.1,0.4c-0.5,0.1-0.9,0.2-1.3,0.4C98.4,944.3,97.7,944.3,97,944.3L97,944.3z"/>
		<path class="st0" d="M119.8,936.4c0,2.4-0.7,4.3-2,5.7s-3.3,2.1-5.7,2.1c-2.4,0-4.3-0.7-5.7-2.1c-1.3-1.3-2-3.3-2-5.7
			c0-2.4,0.7-4.3,2-5.7c1.3-1.3,3.3-2,5.7-2c2.4,0,4.3,0.7,5.7,2C119.1,932.2,119.8,934.1,119.8,936.4z M114.6,940.4
			c0.4-0.5,0.7-1.1,0.8-1.6c0.2-0.6,0.2-1.3,0.2-2.1c0-0.9-0.1-1.7-0.4-2.3c-0.2-0.7-0.5-1.2-0.8-1.4c-0.4-0.5-0.7-0.7-1.2-0.9
			c-0.5-0.2-0.9-0.2-1.3-0.2c-0.5,0-0.9,0.1-1.3,0.2c-0.5,0.1-0.8,0.5-1.2,0.9s-0.6,0.9-0.8,1.6c-0.2,0.8-0.4,1.4-0.4,2.3
			s0.1,1.7,0.4,2.3c0.2,0.7,0.5,1.2,0.8,1.6c0.4,0.5,0.7,0.7,1.2,0.9c0.5,0.2,0.9,0.2,1.3,0.2c0.5,0,1.1-0.1,1.3-0.4
			C113.9,941.1,114.4,940.7,114.6,940.4L114.6,940.4z"/>
		<path class="st0" d="M136.4,944h-3.8l-6.4-10.3V944h-3.6v-15h4.6l5.5,8.7v-8.7h3.6V944z"/>
		<path class="st0" d="M152.2,939.3c0,1.4-0.7,2.7-1.9,3.7c-1.3,0.9-3,1.3-5.1,1.3c-1.3,0-2.3-0.1-3.3-0.4c-0.9-0.2-1.8-0.5-2.6-0.8
			v-3.7h0.5c0.8,0.7,1.7,1.2,2.7,1.4c1.1,0.4,1.9,0.6,2.9,0.6c0.2,0,0.6,0,0.9-0.1c0.4,0,0.7-0.1,0.9-0.2c0.4-0.1,0.6-0.2,0.7-0.5
			c0.2-0.2,0.4-0.5,0.4-0.8c0-0.4-0.1-0.6-0.5-0.8c-0.2-0.2-0.7-0.5-1.3-0.6c-0.6-0.1-1.2-0.2-1.8-0.4c-0.7-0.1-1.3-0.2-1.8-0.5
			c-1.3-0.5-2.1-0.9-2.7-1.7c-0.6-0.8-0.8-1.6-0.8-2.6c0-1.3,0.7-2.5,1.9-3.4c1.3-0.9,2.9-1.3,4.8-1.3c1.1,0,1.9,0.1,3,0.4
			c0.9,0.2,1.8,0.5,2.5,0.7v3.4H151c-0.6-0.5-1.3-0.9-2.3-1.3c-0.9-0.4-1.8-0.5-2.7-0.5c-0.4,0-0.7,0-0.9,0.1
			c-0.4,0-0.7,0.1-0.9,0.2c-0.2,0.1-0.5,0.2-0.7,0.5c-0.2,0.2-0.2,0.5-0.2,0.7c0,0.4,0.1,0.7,0.5,0.9s0.9,0.5,1.7,0.6
			c0.6,0.1,1.1,0.2,1.6,0.4c0.5,0.1,1.1,0.2,1.6,0.5c1.2,0.4,2,0.9,2.5,1.6C152,937.4,152.2,938.3,152.2,939.3L152.2,939.3z"/>
		<path class="st0" d="M168,938.7c0,1.8-0.6,3.3-1.7,4.2c-1.2,0.9-2.9,1.4-5,1.4c-2.1,0-3.9-0.5-5-1.4c-1.2-1.1-1.7-2.4-1.7-4.2
			v-9.5h3.9v9.3c0,1.1,0.2,1.8,0.7,2.3c0.5,0.5,1.2,0.8,2.1,0.8c1,0,1.7-0.2,2.1-0.7c0.5-0.5,0.7-1.3,0.7-2.4v-9.3h3.9v9.5H168
			L168,938.7z"/>
		<path class="st0" d="M187.4,944h-3.9v-10l-2.7,6.5h-2.6l-2.7-6.5v10h-3.7v-15h4.5l3.4,7.5l3.4-7.5h4.5v15H187.4L187.4,944z"/>
		<path class="st0" d="M203.5,933.7c0,0.7-0.1,1.3-0.4,1.9c-0.2,0.7-0.6,1.2-1.1,1.6c-0.6,0.6-1.3,1.1-2,1.3
			c-0.7,0.4-1.7,0.5-2.7,0.5H195v4.9h-3.9v-15.1h6.4c0.9,0,1.7,0.1,2.4,0.2c0.7,0.1,1.3,0.5,1.7,0.8c0.6,0.4,1.1,0.9,1.3,1.4
			C203.4,932.2,203.5,932.9,203.5,933.7z M199.5,933.8c0-0.5-0.1-0.8-0.4-1.2c-0.2-0.4-0.5-0.6-0.8-0.7c-0.5-0.1-0.8-0.2-1.2-0.2
			h-2.1v4.4h1.2c0.7,0,1.3,0,1.6-0.1c0.5-0.1,0.8-0.2,1.1-0.5c0.2-0.2,0.5-0.5,0.6-0.8L199.5,933.8L199.5,933.8z"/>
		<path class="st0" d="M218.1,931.9h-4.6v12h-3.9v-12H205v-3h13.1V931.9z"/>
		<path class="st0" d="M228.4,944h-8.8v-2.6h2.5v-9.6h-2.5v-2.6h8.8v2.6h-2.5v9.6h2.5V944z"/>
		<path class="st0" d="M246.2,936.4c0,2.4-0.7,4.3-2,5.7c-1.3,1.3-3.3,2.1-5.7,2.1s-4.3-0.7-5.7-2.1c-1.3-1.3-2-3.3-2-5.7
			c0-2.4,0.7-4.3,2-5.7c1.3-1.3,3.3-2,5.7-2s4.3,0.7,5.7,2C245.5,932.2,246.2,934.1,246.2,936.4z M241.1,940.4
			c0.4-0.5,0.7-1.1,0.8-1.6c0.2-0.6,0.2-1.3,0.2-2.1c0-0.9-0.1-1.7-0.4-2.3c-0.2-0.7-0.5-1.2-0.8-1.4c-0.4-0.5-0.7-0.7-1.2-0.9
			c-0.5-0.2-0.9-0.2-1.3-0.2s-0.9,0.1-1.3,0.2c-0.5,0.1-0.8,0.5-1.2,0.9s-0.6,0.9-0.8,1.6c-0.2,0.7-0.4,1.4-0.4,2.3s0.1,1.7,0.4,2.3
			c0.2,0.7,0.5,1.2,0.8,1.6c0.4,0.5,0.7,0.7,1.2,0.9c0.5,0.2,0.9,0.2,1.3,0.2s1.1-0.1,1.3-0.4C240.3,941.1,240.7,940.7,241.1,940.4
			L241.1,940.4z"/>
		<path class="st0" d="M262.8,944H259l-6.4-10.3V944h-3.6v-15h4.6l5.5,8.7v-8.7h3.6V944z"/>
	</g>
	<path class="st1" d="M31.4,1011.3H20.8c0,0-1.6-0.7,0-3.9c0,0,1.3-3.6,5.2-3.9h35c0,0,5.7,0.9,5.8,5.7v33.8h11.4
		c0,0,1.9,5.2-4.5,7.6l-35.3,0.2c0,0-5-0.4-6.5-6.1C31.7,1044.7,31.4,1011.3,31.4,1011.3z"/>
	<path class="st1" d="M78.1,1043c0,0-25.9,0.5-33.5,0.2c-2.1,0-1.8,8.2-8.9,6.8"/>
	<path class="st1" d="M26.5,1003.5c0,0,4.8,0.5,4.8,8.3"/>
	<path class="st2" d="M60.6,1015.1H49.6c-0.1,0-0.4-0.1-0.4-0.4v-1.3c0-0.1,0.1-0.4,0.4-0.4h11.2c0.1,0,0.4,0.1,0.4,0.4v1.3
		C60.9,1015,60.8,1015.1,60.6,1015.1z"/>
	<path class="st2" d="M60.6,1021.1H49.6c-0.1,0-0.4-0.1-0.4-0.4v-1.3c0-0.1,0.1-0.4,0.4-0.4h11.2c0.1,0,0.4,0.1,0.4,0.4v1.3
		C60.9,1021,60.8,1021.1,60.6,1021.1z"/>
	<path class="st2" d="M60.6,1027.1H37.4c-0.1,0-0.4-0.1-0.4-0.4v-1.3c0-0.1,0.1-0.4,0.4-0.4h23.2c0.1,0,0.4,0.1,0.4,0.4v1.3
		C60.9,1027,60.8,1027.1,60.6,1027.1z"/>
	<path class="st2" d="M60.6,1032.9H37.4c-0.1,0-0.4-0.1-0.4-0.4v-1.3c0-0.1,0.1-0.4,0.4-0.4h23.2c0.1,0,0.4,0.1,0.4,0.4v1.3
		C60.9,1032.8,60.8,1032.9,60.6,1032.9z"/>
	<path class="st2" d="M60.6,1039.2H37.4c-0.1,0-0.4-0.1-0.4-0.4v-1.3c0-0.1,0.1-0.4,0.4-0.4h23.2c0.1,0,0.4,0.1,0.4,0.4v1.3
		C60.9,1039,60.8,1039.2,60.6,1039.2z"/>
	<g>
		<path class="st0" d="M109.8,1028.3c0,0.7-0.1,1.3-0.5,1.9s-0.7,1.1-1.3,1.3c-0.6,0.5-1.3,0.8-1.9,0.9c-0.7,0.1-1.6,0.2-2.7,0.2
			h-6.6v-15h5.8c1.3,0,2,0,2.6,0.1s1.2,0.2,1.7,0.6c0.6,0.4,1.1,0.7,1.3,1.2c0.2,0.5,0.5,1.1,0.5,1.7s-0.2,1.3-0.6,1.9
			c-0.4,0.6-0.9,1.1-1.6,1.3v0.1c1.1,0.2,1.7,0.6,2.4,1.3C109.5,1026.6,109.8,1027.3,109.8,1028.3z M104.8,1022.2
			c0-0.2-0.1-0.5-0.2-0.8c-0.1-0.3-0.4-0.5-0.7-0.6c-0.2-0.1-0.7-0.1-1.1-0.2s-1.1,0-1.8,0h-0.4v3.2h2.2c0.5,0,0.8-0.1,1.1-0.2
			c0.4-0.1,0.6-0.4,0.7-0.6C104.8,1022.8,104.8,1022.5,104.8,1022.2z M105.8,1028.2c0-0.5-0.1-0.8-0.2-1.2c-0.2-0.2-0.5-0.5-0.9-0.6
			c-0.4-0.1-0.7-0.1-1.3-0.1H101v3.8h2.6c0.5,0,0.9-0.1,1.3-0.2c0.5-0.1,0.7-0.4,0.8-0.7C105.7,1028.9,105.8,1028.7,105.8,1028.2
			L105.8,1028.2z"/>
		<path class="st0" d="M120.8,1032.9H112v-2.6h2.5v-9.6H112v-2.6h8.8v2.6h-2.5v9.6h2.5L120.8,1032.9L120.8,1032.9z"/>
		<path class="st0" d="M134.7,1032.9h-10.8v-15h3.9v12h6.9V1032.9z"/>
		<path class="st0" d="M147.9,1032.9h-10.8v-15h3.9v12h6.9V1032.9z"/>
		<path class="st0" d="M161.1,1032.9h-10.8v-15h10.8v3h-7v2.6h6.5v3H154v3.8h7V1032.9L161.1,1032.9z"/>
		<path class="st0" d="M178.5,1025.4c0,1.3-0.4,2.6-0.9,3.8c-0.7,1.2-1.4,1.9-2.4,2.5c-0.7,0.5-1.4,0.8-2.4,0.9
			c-0.9,0.2-1.9,0.2-3.1,0.2h-5.5v-15h5.5c1.3,0,2.3,0.1,3.2,0.4c0.9,0.2,1.6,0.5,2.3,0.9c1.1,0.7,1.8,1.4,2.4,2.5
			C178.2,1022.8,178.5,1024.1,178.5,1025.4z M174.5,1025.4c0-1.1-0.2-1.8-0.6-2.5c-0.4-0.7-0.9-1.3-1.7-1.6
			c-0.4-0.2-0.8-0.4-1.3-0.5s-1.1-0.1-1.8-0.1h-1.1v9.4h1.1c0.9,0,1.6,0,2-0.1c0.5-0.1,0.8-0.2,1.3-0.5c0.7-0.5,1.3-0.9,1.6-1.6
			C174.3,1027.2,174.5,1026.4,174.5,1025.4L174.5,1025.4z"/>
	</g>
	<g class="st50">
		<g>
			<path d="M87,1141.6l5.9-8.3c0,0,0.4-1.2-0.4-1.7l-10-6.6c0,0-5.5-3.2-13.3-1.3c0,0-11.2,3.6-18.2,4.4c-2.4,0.4-6.2,0-9.6-0.4
				c-0.9-0.1-3.6,1.3-1.8,3.4c0,0,6.5,4.1,20.5,1.2c0,0,4.3-0.7,0.7,1.2c0,0-12.8,3.6-21.4-1.3c0,0-15.6-6.8-18.7-4.1
				c0,0-2,1.3,1.1,2.3c0,0,10,3.1,13.7,6.8c0,0,15.7,9,22.8,9.1c0,0,5.2,1.3,12.7-3.1c0,0,8-7,14.3-1.6
				C85,1141.6,86.1,1142.4,87,1141.6L87,1141.6z"/>
			<path d="M34.6,1127.6l1.9,0.8c0,0-0.2-4.5,7.3-3.2c0,0,8.1,0.5,10.7-0.8l10.1-2.7c0,0-1.2-13.1-3.4-15.5c0,0-4.4-5-7.4-5.6h-8.6
				c0,0-6.7,3.1-8.1,7.1C37.3,1107.8,34.6,1111.8,34.6,1127.6L34.6,1127.6z"/>
			<path d="M44.9,1099.6h9.2l2.7-7c0,0,1.2-4.8-4.3-3c0,0-3.3-4.9-6.6,0.6c0,0-6.5-0.7-4.5,4.1L44.9,1099.6z"/>
		</g>
		<path class="st3" d="M50.3,1120.5l-5.8-6.6c0,0-0.1-0.1-0.1-0.4v-1.4c0,0,0.1-0.4,0.4-0.4c0.5,0.5,5.7,1.7,4.9-1.9h-5
			c0,0-0.4,0-0.4-0.2v-1.3c0,0,0-0.4,0.4-0.4h4.8c0,0-0.5-1.4-3.9-1.3h-1l-0.4-0.2v-1.7c0,0,0-0.2,0.4-0.2h9.5c0,0,0.4,0,0.4,0.4
			v1.3c0,0,0,0.2-0.2,0.2h-2.7c0,0,0.7,0.9,0.7,1.7h1.9c0,0,0.4,0,0.4,0.2v1.3c0,0,0,0.2-0.2,0.2h-2c0,0-0.1,3.3-4.6,3.9l5.1,6.1
			c0,0,0.2,0.2,0.2,0.5c0,0,0,0.2-0.2,0.2h-2.4C50.5,1120.6,50.4,1120.6,50.3,1120.5L50.3,1120.5z"/>
	</g>
	<g>
		<path class="st0" d="M121.3,1121.7h-4.8l-4.1-5.5h-1.8v5.5h-3.9v-15h6.5c0.9,0,1.6,0,2.3,0.1c0.7,0.1,1.3,0.4,1.8,0.7
			s1.1,0.8,1.3,1.3c0.4,0.5,0.5,1.3,0.5,2c0,1.2-0.2,2-0.8,2.7c-0.6,0.7-1.3,1.3-2.1,1.7L121.3,1121.7L121.3,1121.7z M115.2,1111.4
			c0-0.4-0.1-0.7-0.2-1.1c-0.1-0.4-0.5-0.5-0.8-0.7c-0.2-0.1-0.6-0.2-0.9-0.2h-2.6v4.1h1.2c0.6,0,1.2,0,1.6-0.1
			c0.5-0.1,0.8-0.2,1.1-0.5c0.2-0.2,0.5-0.5,0.6-0.7C115.1,1112.2,115.2,1111.8,115.2,1111.4L115.2,1111.4z"/>
		<path class="st0" d="M133.8,1121.7H123v-15h10.8v3h-7v2.6h6.5v3h-6.5v3.8h7V1121.7z"/>
		<path class="st0" d="M150.6,1106.7l-5.5,15h-4.3l-5.5-15h4.1l3.7,10.6l3.7-10.6H150.6L150.6,1106.7z"/>
		<path class="st0" d="M163.7,1121.7h-10.8v-15h10.8v3h-7v2.6h6.5v3h-6.5v3.8h7V1121.7z"/>
		<path class="st0" d="M180.5,1121.7h-3.8l-6.4-10.3v10.3h-3.6v-15h4.6l5.5,8.7v-8.7h3.6V1121.7z"/>
		<path class="st0" d="M197.5,1116.4c0,1.8-0.6,3.3-1.7,4.2c-1.2,0.9-2.9,1.4-5,1.4c-2.1,0-3.9-0.5-5-1.4c-1.2-1.1-1.7-2.4-1.7-4.2
			v-9.5h3.9v9.3c0,1.1,0.2,1.8,0.7,2.3c0.5,0.5,1.2,0.8,2.1,0.8c0.9,0,1.7-0.2,2.1-0.7c0.4-0.5,0.7-1.3,0.7-2.4v-9.3h3.9v9.5
			L197.5,1116.4L197.5,1116.4z"/>
		<path class="st0" d="M212,1121.7h-10.9v-15h10.8v3h-7v2.6h6.5v3h-6.5v3.8h7L212,1121.7L212,1121.7z"/>
	</g>
</g>
		
<!--Color Legend-->
<g>
	<circle class="st4" cx="829.1" cy="801.8" r="14"/>
	<text transform="matrix(1 0 0 1 853.5361 807.0497)" class="st5 st6">CHENNAI NORTH</text>
	<circle class="st7" cx="829.1" cy="843.1" r="14"/>
	<text transform="matrix(1 0 0 1 853.5361 848.3514)" class="st5 st6">CHENNAI SOUTH</text>
	<circle class="st8" cx="829.1" cy="884.4" r="14"/>
	<text transform="matrix(1 0 0 1 853.5361 889.662)" class="st5 st6">VELLORE</text>
	<circle class="st9" cx="829.1" cy="925.8" r="14"/>
	<text transform="matrix(1 0 0 1 853.5361 930.9637)" class="st5 st6">VILLU PURAM</text>
	<circle class="st10" cx="829.1" cy="967.1" r="14"/>
	<text transform="matrix(1 0 0 1 853.5361 972.2743)" class="st5 st6">ERODE</text>
	<circle class="st11" cx="829.1" cy="1008.4" r="14"/>
	<text transform="matrix(1 0 0 1 853.5361 1013.576)" class="st5 st6">TRICHY</text>
	<text transform="matrix(1 0 0 1 910.2871 1013.576)" class="st5 st6"> </text>
	
	<circle class="st0" cx="829.1" cy="1049.7" r="14"/>
	<text transform="matrix(1 0 0 1 853.5361 1054.8768)" class="st5 st6">COIMBATORE</text>
	<text transform="matrix(1 0 0 1 915.4482 1054.8768)" class="st5 st6"> </text>

	<circle class="st13" cx="829.1" cy="1091" r="14"/>
	<text transform="matrix(1 0 0 1 853.5361 1096.1884)" class="st5 st6">MADHURAI</text>
	<circle class="st14" cx="829.1" cy="1132.3" r="14"/>
	<text transform="matrix(1 0 0 1 853.5361 1137.4891)" class="st5 st6">TIRUNEVELIL</text>
	<text transform="matrix(1 0 0 1 922.6768 1137.4891)" class="st5 st6"> </text>
	
</g>

<!--Title-->
<g>
	<text transform="matrix(1 0 0 1 40.519 103.223)" class="st15 st5 st16">DISCOM</text>
	<text transform="matrix(1 0 0 1 20.0082 182.4745)" class="st15 st5 st16">REGIONS</text>
</g>
	
<!--Tirunelveli-->
<g class="svgmap3">
	<path class="st17" d="M271.8,1101.9v2.6c0,0,0.7,1,1.3,1h5.3l2.3,1.2v3.9l4.9,1.2l1,3h2.1l0.6,4.4l5.3,0.4l2.9,2.9l1.4,2.1l1,1
		l2.4,0.7l6.5,0.6l2.9,1.4l-0.7,3.5l4.6,0.6v1.4l12.9,0.9l2.1,1.4v3l6.7,0.4l1,3.5h7l1.3,1.4l7.9,0.6h7.3l1.4,1.2l2.4,2.1l3.2-0.6
		l0.9-0.6v-6.3l5.8-1.4l0.9-4.6l7.3,0.1v-3.2l5.5,0.1v-3l25.6-0.4l0.7-1.8l3.9-0.9l1.5-3.5l2.9-3.3l1-4v-1.4l6-1.2l1.4-1.5l5,0.4
		l0.9-4.1l5.3-1.3l1.7-4l5.9-1.5l0.9-3.8l3-1.4l6.5-0.6l2.1-4.4h3.8l1.7-5.9l8.8,0.6l1.3-4.6l-1.8-2.9l-0.4-5l6-0.6l0.6-4.6l5-0.7
		l0.6-2.9l4.1-2.9v-18.5l-9.3-6.5l-0.9-7.7l5.8-1.2l3-5.3l2.6-4.1v-10.5l2.4-3.9l2.1-3.8l3-3l2.1-0.6v-22h6.5l6.2-2.3l-1.3-8
		l1.3-2.6l1.8-1.7l2.3-2.6l2.1-1.8l4.4-1.4v-3.8h3.3l2.4-3.5c0,0,2.1-1.3,3.2-1.8c1-0.6,3.5-2.7,3.5-2.7l2.1-2.7l1.3-3.2l-1-1.2
		l-2.6-0.3c0,0-1-0.1-1.2,0c-0.1,0.1-0.9,0.1-0.9,0.1s-0.9-0.3-1.2-0.4c-0.3-0.3-0.4,0-0.7-0.6c-0.3-0.6-2.7-2.7-2.7-2.7l-5-4.7
		l-3.5-0.3l-0.9-3l3-2.4l0.7-5.9l-0.3-0.9l-2.9-0.4l-0.7-1.2l-1.5-5.6l1.2-5.8l9.1-4.9c0,0,4.9-2.9,8.5-1.7l0.6-3.8l-3.3-4.4
		l-8.3-4.1c0,0-1.7-1.7-2.1-3.3l-10.5-4.3c0,0-0.4-2.7-0.7-2.9c0,0-2.6-2.1-2.7-2.6l-0.7-5.9c0,0-0.1-0.9,0.7-1.2c0,0,2.9-1.2,5.3-1
		c0,0,4.6,2,5.6,1.8c0,0,7.9-4.7,8-10.2v-3.6c0,0,1-5.5,6.5-5.6h0.9l-0.1,3.3l1,1.8l3.2,0.6l1.2-2.3v-2.7l-2.7-4.7l-1.7-1.5
		l-0.6-1.4c0,0,1.5-0.6,1.7-0.7c0.2-0.1,5.2-3.6,5.2-3.6l0.9-2.3l-0.4-5c0,0-0.1-2.9-4.3-1.7l-9.4-3.8l-0.9-2.1l-0.9-3.6l-1.4-1.8
		h-1.8l-1.8,1.3l-0.6,1.3l-1.2,0.9l-2.1,1.3l-2.3,1l-1.5-0.7l-0.1-7.4l-7.9-8.3l-1,2.1l-1.4,1.2l-6-0.4H497l-7.6,0.6
		c0,0-2.6,1.4-2.7,1.5s-2.6,1.4-2.6,1.4v3.3l0.6,4.9c0,0,0.3,1.7,0.3,1.8s-1.2,3-1.2,3l-1.4,1.3h-3.2l-1.2-0.3l-2.1-3.8l-1.2,1.3
		l-7.1,6.5c0,0-3,0.9-3.3,0.9c-0.3,0-4-0.4-4-0.4l-5.2-1.8l-2.4,0.7l-4.1,3.2l-2,4.4l-2.9,0.3c0,0-1-7-5.2-8.6l-19.5,0.6l-2-6.7
		l-11.7-1.2c0,0-0.4,3-0.9,3.2l-11.5,0.3c0,0-2.1-7.3-3.5-7.4c0,0-5,6-8.6,5c0,0-1,0-1,5.3v0.6l-10.6,1c0,0-2.4,0.4-3.8,2.4l-3,5.6
		l0.1,7.6l-4.3,0.7l-1.7,3.3c0,0-7.6-1.8-8.3-1.4l-7.4,4.7l-0.1,2.7l-0.6,5.8l-4.1,1.3l-0.6,5l-1.4,2.4l-0.4,4.3l-2.1,2.4l-1,1.3
		l-0.6,3.5v3.2l-1.7,1.5l-0.7,3l-0.9,1.8h-4.3c-0.3,0-2.1,0.4-2.1,0.4l-0.7,18l-1.3,2.3l-2.1,2c0,0-0.1,2.7-0.4,2.7
		c-0.1,0-3,0.3-3.2,0.7c-0.1,0.4-0.7,4.4-0.7,4.4l-1.2,11.2l-4.6,1.7l-3.2,0.9l0.1,4.7h-5.3L297,940l-5.3,1.8l0.9,4.9l-2.6,0.4
		l-0.4,8.2l3.2,1.8l-1,3.6l2.6,3l2.6,1.8l3,2.6c0,0,0,3.2,0.6,3.2c0.6,0,3.2,0.1,3.2,0.1h5.8l-2.7,2l0.9,3.5c0,0,0.9-0.9,1,1.7
		c0.1,2.6,0.1,9.1,0.1,9.1l-3.2,1.4l-1.7,4c0,0,0.9,0.9,0.9,1.4c0,0.6-0.6,2.3-2.1,2.3c-1.4,0-3.6,0.6-3.6,0.6v3.8l-3.8,3.2
		c0,0-1.7,3.2-3.5,3.2s-2.3,4-2.3,4l3.6,1.4c0,0,2.7,1,2.1,1.8c-0.6,0.9,0,14.1,0,14.1l6,1.3l1.4,4.6l2.1,0.1l3.5,4.1l3.2,1.7
		c0,0,1.3,1.7,0.6,3.8c-0.6,2.1-2.6,4-2.6,4s-0.1,0.6-0.1,2.7s-0.1,5-0.1,5l-3.5,1.4l-2.7-0.6l-2.7-1.7l-3.8,1l-1.2,3.6h6l-1.3,5
		l-2.1,2.6h-2.9v2.6l-3.9,1.7h-1.4l-1.3,4.4l-4,2.1l-4,1.7l0.6,2.1l-0.1,3.2l4.6,0.6c0,0,2.7,1.7,3.5,2.6c0.6,0.9,2.6,3.2,2.6,3.2
		v2.1l-4,1l-8.5,0.9l-2.3,1l-1.8,2.6l-1,1.4L271.8,1101.9L271.8,1101.9z"/>
	<g>
		<g>
			<g class="st50">
				<circle cx="363.1" cy="918.7" r="10.2"/>
				<circle cx="388.4" cy="923.6" r="7.9"/>
				<circle cx="337.3" cy="923.6" r="7.9"/>
				<path d="M329.3,933.6c0,0,3.9,7.8,13.5,2.6c0,0-2.4,6.5-1.5,17h-19C322.3,953.5,320.7,939.1,329.3,933.6L329.3,933.6z"/>
				<path d="M396.3,933.6c0,0-3.9,7.8-13.5,2.6c0,0,2.4,6.5,1.5,17h19C403.2,953.5,404.8,939.1,396.3,933.6L396.3,933.6z"/>
				<path d="M352.6,930.1c0,0,8.8,12.6,20.7,0.2c0,0,12,2.8,8.3,29.5h-37.1C344.5,959.6,340,937.3,352.6,930.1z"/>
			</g>
			<text transform="matrix(1 0 0 1 331.6987 984.5907)" class="st18 st5 st19" id="Consumers_Tirunelveli"></text>
		</g>
		<g class="st50">
			<g>
				<polygon points="472.6,917.8 447.4,938.8 459,942.4 451.1,960.8 476,940.7 464.7,937.6"/>
				<path d="M440,945.5c0.2-2-4.6-24.5,23.1-29.7c0,0-1.3,2-0.5,3.1c1.3,1.3,6.4-2.8,6.2-4.8c-0.2-1.9-4.6-6.1-6.4-4.5
					c-0.7,0.7,0.5,2.6,0.5,2.6s-30.5,1.9-26.4,33.8C436.8,947,439.8,949.2,440,945.5z"/>
				<path d="M474,918c1.5,1.3,22.4,11.2,9.4,36.4c0,0-0.9-2.4-2-2.2c-1.9,0.4-1.5,6.7,0.2,7.8c1.7,1.1,7.6,0,7.4-2.2
					c-0.2-0.9-2.4-1.3-2.4-1.3s16.9-25.5-10.9-41.5C474.5,914.7,471.2,915.6,474,918L474,918z"/>
				<path d="M476.7,961.4c-1.7,0.7-18.1,13.5-32.9-7.2c0,0,2.2,0.2,2.6-0.9c0.5-1.7-4.8-4.1-6.4-3.1c-1.5,0.9-3.1,6.2-1.3,6.9
					c0.9,0.4,1.9-1.5,1.9-1.5s13.6,24,37.7,8.3C479.3,963.2,479.9,960.1,476.7,961.4L476.7,961.4z"/>
			</g>
			<text transform="matrix(1 0 0 1 424.1909 989.6942)" class="st18 st5 st19" id="Consumption_Tirunelveli"></text>
		</g>
								<g class="st50">
			<g>
				<path class="st1" d="M387.4,1007.2h-12.4c0,0-1.7-0.7,0-4.5c0,0,1.5-3.9,6.1-4.5h40.5c0,0,6.5,0.9,6.7,6.5v38.9h13.3
					c0,0,2.2,6.1-5.3,8.8l-40.8,0.4c0,0-5.9-0.4-7.6-6.9L387.4,1007.2L387.4,1007.2z"/>
				<path class="st1" d="M441.3,1043.7c0,0-29.9,0.5-38.8,0.2c-2.6,0-2,9.6-10.2,7.9"/>
				<path class="st1" d="M381.7,997.9c0,0,5.7,0.5,5.7,9.6"/>
				<path class="st20" d="M421.6,1010H409c-0.2,0-0.5-0.2-0.5-0.5v-0.9c0-0.2,0.2-0.5,0.5-0.5h12.6c0.2,0,0.5,0.2,0.5,0.5v1.3
					C421.9,1009.8,421.7,1010,421.6,1010z"/>
				<path class="st20" d="M421.6,1016.7H409c-0.2,0-0.5-0.2-0.5-0.5v-1.3c0-0.2,0.2-0.5,0.5-0.5h12.6c0.2,0,0.5,0.2,0.5,0.5v1.3
					C421.9,1016.6,421.7,1016.7,421.6,1016.7z"/>
				<path class="st20" d="M421.6,1024h-26.6c-0.2,0-0.5-0.2-0.5-0.5v-1.3c0-0.2,0.2-0.5,0.5-0.5h26.6c0.2,0,0.5,0.2,0.5,0.5v1.3
					C421.9,1023.8,421.7,1024,421.6,1024z"/>
				<path class="st20" d="M421.6,1030.5h-26.6c-0.2,0-0.5-0.2-0.5-0.5v-1.3c0-0.2,0.2-0.5,0.5-0.5h26.6c0.2,0,0.5,0.2,0.5,0.5v1.3
					C421.9,1030.3,421.7,1030.5,421.6,1030.5z"/>
				<path class="st20" d="M421.6,1037.7h-26.6c-0.2,0-0.5-0.2-0.5-0.5v-1.3c0-0.2,0.2-0.5,0.5-0.5h26.6c0.2,0,0.5,0.2,0.5,0.5v1.3
					C421.9,1037.6,421.7,1037.7,421.6,1037.7z"/>
			</g>
			<text transform="matrix(1 0 0 1 376.9868 1075.9755)" class="st18 st5 st19" id="Billed_Tirunelveli"></text>
		</g>
		<g class="st50">
			<g>
				<g>
					<path class="st20" d="M382.8,1107.7l6.2-8.6c0,0,0.5-1.1-0.4-1.7l-10.5-6.7c0,0-5.7-3.3-14-1.3c0,0-11.7,3.7-19,4.8
						c-2.6,0.4-6.5,0-10.2-0.4c-1.1,0-3.7,1.3-1.9,3.5c0,0,6.7,4.3,21.4,1.1c0,0,4.6-0.9,0.7,1.3c0,0-13.5,3.7-22.4-1.3
						c0,0-16.4-7-19.5-4.3c0,0-2.2,1.3,1.1,2.4c0,0,10.5,3.1,14.3,7c0,0,16.4,9.3,24,9.4c0,0,5.5,1.3,13.3-3.1c0,0,8.5-7.2,14.8-1.7
						C380.6,1107.7,381.9,1108.7,382.8,1107.7z"/>
					<path class="st20" d="M327.8,1093.2l2,0.9c0,0-0.2-4.8,7.6-3.3c0,0,8.6,0.5,11.1-0.9l10.5-2.9c0,0-1.1-13.6-3.7-16.2
						c0,0-4.6-5.2-7.8-5.9h-8.8c0,0-6.9,3.1-8.5,7.4C330.8,1072.5,327.8,1076.6,327.8,1093.2L327.8,1093.2z"/>
					<path class="st20" d="M338.7,1063.7h9.6l2.9-7.4c0,0,1.1-5-4.6-3.1c0,0-3.3-5-6.9,0.7c0,0-6.7-0.9-4.8,4.3L338.7,1063.7z"/>
				</g>
				<path class="st3" d="M344.4,1085.8l-6.1-6.9c0,0-0.2-0.2,0-0.4v-1.5c0,0,0.2-0.4,0.4-0.4c0,0,4.6,0.5,5-2h-5c0,0-0.4,0-0.4-0.4
					v-1.3c0,0,0-0.4,0.4-0.4h5c0,0-0.5-1.5-3.9-1.3h-1.1c0,0-0.4,0-0.4-0.4v-1.9c0,0,0-0.4,0.4-0.4h10c0,0,0.4,0,0.4,0.4v1.3
					c0,0,0,0.2-0.4,0.4h-2.9c0,0,0.7,1.1,0.9,1.7h2c0,0,0.4,0,0.4,0.4v1.3c0,0,0,0.2-0.4,0.4h-2c0,0-0.2,3.5-4.8,4.1l5.3,6.4
					c0,0,0.4,0.4,0.2,0.5c0,0,0,0.4-0.4,0.4L344.4,1085.8C344.5,1085.8,344.5,1085.8,344.4,1085.8L344.4,1085.8z"/>
			</g>
			<text transform="matrix(1 0 0 1 321.2124 1131.4706)" class="st18 st5 st19" id="Revenue_Tirunelveli"></text>
		</g>
		<text transform="matrix(1 0 0 1 345.1709 880.7255)" class="st21 st23">TIRUNELVELI</text>
	</g>
</g>
		
<!--Madurai-->		
<g class="svgmap">
	<path class="st24" d="M295,823.8l0.4-7.6v-0.4l1.2-1.8l0.6-2.6v-0.6l2.1-0.3l1-1.3l0.6-2l0.3-1.5l0.1-0.7l0.7-0.4l1-0.6l-0.3-17
		l-1.6-1.5l-0.3-3.2l0.3-2l0.3-2l1.4-2l0.1-1.7l0.3-5.8l2-1.7l1.4-3.3l0.3-4.1l7.6-0.4l-0.3-5l-5.6-0.6l-0.7-11.9l-10.2-5.6
		l-0.1-11.7l16.7-0.6l0.4-7.3l0.6-2.6l1.5-1.8l0.1-10.8v-1h10.8l0.3-5l4.9-1.2l-0.3-4.1l-2.6-1l0.3-11.2l-0.7-2l-2.3-1.2l0.1-12.7
		l7.9-0.6v-4.6l5.3-0.1l0.4-3.2l1.8-2.7l0.7-3.8l-0.4-1.8v-1.3l-0.7-1.2h-1l-2.9-0.4l-1-0.9l1.3-4.4l0.1-3.8l1.4-1.5l2.6-2.4
		c0,0,1.5-2.1,0.3-3.9l5.3-0.9l3.5-0.9l1.2-2.6l1.8-1.7c0,0,1-0.4,1.4-0.4c0.5,0,4-0.1,4-0.1l3.5,2.9l2.9,0.7l2.7-0.3l1.3-0.4l0.7-5
		l4.7-1.3l0.6-4.7l3-2.7l3,2.9l-0.1,4.1l15.8-1l0.4-10.3l5.2-0.6l2-2.1h4c0,0,0.4,1,0.4,1.2c0,0.2-0.4,1.3-0.6,1.8
		c-0.1,0.6-1.4,1.7-2.1,2s-0.7,0.7-1.2,1c-0.5,0.3-0.4,0.1-0.4,1.4s0.1,13,0.1,13l1.7,1.2l4.4-2.1l4.4-3.3l1.8-0.6l1.5-3v-3.8
		l1.8-0.4l5.6-0.6c0,0,1.5,1.2,1.4,1.7c-0.1,0.6-0.3,5.5-0.3,6c0,0.6,0.3,5,0.3,5s0.4,0.9,0.9,0.9c0.4,0,3.9-0.4,3.9-0.4l4,0.4
		l6.8-1.3l3.2-2l5.8,0.4c0,0,1.7,0,2.4,1c0.7,1,1,1.8,1,1.8s1.4-2,1.7-2.3c0.3-0.3,1.2-2.1,1.4-2.3c0.3-0.1,1.7-2.1,2.1-2.6
		c0.4-0.4,1.4-1,1.8-1.3c0.6-0.1,2.1-0.6,2.9-1.2c0.7-0.6,1.5-1.4,1.5-1.4l1.5-2.1c0,0,0.4-3.9,0.6-4.3c0.1-0.4,1.4-3,1.4-3
		s0.1-1.7,0-2.1c-0.1-0.3-3.8-2.1-4.6-2.6c-0.9-0.4-1.3-2.3-1-2.7c0.3-0.4,2.1-1.7,2.9-2c0.6-0.3,3.9-1.3,5.3-1.3s5.6,0.3,5.8,1
		c0.1,0.6-0.1,3.5,0,4.1c0.1,0.7,3.5,2.3,3.5,2.3s2.1-1.5,2.3-1.8c0.1-0.3,3.8-2.4,3.8-2.4s-0.4-0.6,0-1.4c0.4-0.7,0.6-4,0.6-4.4
		c0-0.4,0.6-1.7,0.6-2c0.1-0.3,6.3-3.5,6.3-3.5l4.1-1.3c0,0,3.5,2.6,3.5,3c0,0.4-1.3,3.8-1.7,4c-0.4,0.3-3.8,2.3-3.8,2.3
		s-1.4,2.4-1.4,3.3c0,0.9,0.6,16.8,0.6,16.8l-4.6,1l0.6,6.8l3.9,1l-2.4,4l-3.8,3.8l-0.3,3.9l1.7,1.8l1,3.8l3.6-0.1
		c0,0,3.3-0.6,3.5,0.1c0.1,0.7-0.3,2.4-1,3.5c-0.7,1-1,2-0.9,2.6c0.1,0.6,2.1,2.4,2.1,2.4l1.7,0.1c0,0,1.4,1.7,1.8,2.4
		c0.6,0.6,3.5,3.2,3.5,3.2s0.1,2.7,1.2,2.7s2.4-0.1,3.5-0.1c1.1,0,4.3,0.6,5,0.6c0.7,0,3.3-0.7,3.3-0.7l1.7,1.7c0,0-0.6,1.8,1.2,2.1
		c1.7,0.1,3,0.1,3.6,0.6c0.6,0.4,1.3,1.4,1.3,2v3c0,0.6-0.6,2.3-1.4,2.6c-0.9,0.1-2.4,0.6-2.6,1c-0.1,0.3-0.3,1.7-0.3,2.9
		c0,1.2,0.6,3.3,0.6,4.3c0,1.1,1,2,1,2.4c0.1,0.4,2.3,0.3,2.6,1c0.3,0.6,1.5,1.7,2.6,2.4c1,0.7,4.3-0.6,4.6,1.4c0.3,2,0,3.8,0,4.4
		s-0.1,2.4,0,3.3c0.1,0.9,2.1,1.7,2.1,3.6s1.3,3.5,1.3,3.5s0.9-1.1,1.6-1.7c0.7-0.6,1.6-4.6,1.6-4.6l2.6-0.7c0,0,3.5-1.2,4.4-1.2
		c1,0,2.2-2.5,2.2-2.5l1.3-3.5c0,0,0.4-1,0.4-1.5v-3.3c0,0-0.1-0.6,1.5-1c1.7-0.4,4.6-1.1,4.9-1.4c0.3-0.1,0.6-1.1,0.6-1.1l0.8-4.3
		c0,0,1.5-0.9,2.9-0.9c1.4,0,3.5-0.3,3.5-0.3s3.1,4.9,3.2,5.9c0.1,1,1.3,3.3,1.3,3.3s2.1-1,2.6,0.4c0.4,1.4,1.3,1.7,1,3.5
		s0,10.9,0,10.9l-15.8,1.2l-0.8,5.1l7.2,0.9l0.3,12.1l13.3,0.3l0.2-11.6c5.5-4.2,11.2-10.6,16.8-8.5l8.2,8.4l0.9,5.6
		c0,0,1.8,0.4,1.7,1.5c-0.1,1.2-0.9,2.7-1.3,4.1c-0.4,1.4-0.7,2.3-1.2,3.5c-0.4,1.2-0.1,2.7-0.1,4c0,1.3,1.2,0.5,3.2,0.5
		c2,0,3.4-0.5,3.4-0.5l7.5-2.6c0,0,2-0.5,2.1,1c0.1,1.4-0.5,1,1,1.6c1.4,0.6,4.3-0.3,4.3-0.3l1.5-2.8l2.6-2.2l3.7-4.3l2.7-0.5
		l3.3,2.6c0,0,1,1.7,1.2,2.1c0.1,0.3,2,2.4,2.1,3s2,2,1.8,2.9c-0.1,0.9,1.7,1.8,2.2,1.8c0.4,0,6.6-0.4,6.6-0.4l4.7,0.1l3.1,1.1
		l0.6,6.5l1.5-0.4l3.5-1.7l4.7-2l5.4-1.1c0,0,1.1,3.6,1.2,4.9c0.1,1.3,0,3.8,0,3.8s-3,0.6-3.8,0.7c-0.8,0.1-4,1.4-4,1.4
		s-2,1.4-2.4,2.4c-0.4,1-0.9,1-1.7,2.3c-1,1.3-1.5,4-1.5,5v3.8c0,1.2,1.3,0.6,2.1,1.1c0.9,0.6,2.2,0.4,3.1,0.4s2.9,0.5,2.9,0.5
		l3.5,4.5c0,0,2.3,4.3,2.7,5.5c0.4,1.2,1.4,3.6,1.4,3.6l2,1.5l5.1,0.8c0,0,1.3,1.1,1.3,2.3v4.1l2.2,4l3.1,1.4l0.5,0.5l5.5-0.9
		l4.5,4.5l0.4,3.3l-1.3,3.5l-2.1,4.3l-3.5,0.3c0,0-1.3,0.9-2,1.7c-0.7,1-2.6,1.5-2.9,3.5c-0.1,1.7-8.8,8-8.8,8l-2.1,4.6l-2.3,4
		l-2.3,4.9l-2.6,1.3c0,0-3,1-3,1.7c0,0.6-1.3,4.6-1.7,5.8c-0.4,1.2-1.8,3-2.3,4.4c-0.4,1.4-1.3,3.8-1.3,5.3c0,1.4-3,7.6-3,7.6
		l-0.1,5.3c0,0,0.9,1.4,0,2.6c-0.9,1-1.3,1.8-1.3,3.2c0,1.3,2.3,6.2,2.3,6.8s0.4,2.1,1,3c0.6,0.9,2.7,4,4,4.9
		c1.3,0.9,2.7,1.8,2.7,1.8l7.7,7.3l7.1,2.3c0,0,0.1,2.7,2.3,4.1c2.1,1.4,4,3.6,4,3.6s6.5,1.3,7.3,1.3h18.4l3.6,3h15.2l5.9-7.3
		l2.1-0.9l8,0.9v7.3l-2.7,1.3l-0.6,1.3l1,1.3l2.3,4.1l3.2,1.4l4.4,1.8l1.7,4.9h3.5l3.2,4.4l3,2.7l2.1,2.3l3,1.3l-5.5,1.7l-6.3-3.2
		l-1.7-2.3c0,0-1-1.7-2.6-3.2c-1.4-1.4-1.4-0.4-3.2-1.7c-1.7-1.3-4.6-3.6-5.3-3.8c-0.6-0.1-3.5-1.7-4-1.7h-3l-1.4-5.3l-22.9-0.6
		l-1.4-4.6l-14.7,0.4l-1,4.6h-22.2l-0.9-2.7l-15.2-0.4l-1.7,2.7l-21.2,0.4l-4.4,2.3l-3.6,0.9l0.1,3.5h-7.3l-6.5,4.4l-16.1,3l0.9,4.9
		l4.1,0.9l-12.4,1.7l-1.8,2.6c0,0-12.1-0.4-13.3,0s-3,1.8-3,1.8l-5-1.2l-3.5-0.6c0,0-3.5,2-4.4,1.7c-1.2-0.3-7.3,0-7.3,0h-3.2
		c0,0-2.3,2.4-4.4,3c-2.1,0.6-2,0.6-4.4,1.2c-2.6,0.6-6.7,1.7-8.2,1.7c-1.4,0-5.2-1.2-5.5,0s-10-9.1-10-9.1H523l-0.6-3.5l1.7-1.4
		l1.7-0.9c0,0,0.9-6.7,0-6.7s-3.2-0.3-3.2-0.3l-1.7-6.5l0.9-5.6l3.6-2.6c0,0,5-2.3,6.7-3.6c1.7-1.4,7.3-1.2,7.3-1.2l0.6-3.6
		l-3.5-4.1c0,0-6.7-3.2-8-3.9c-1.4-0.9-1.2-3.6-3.9-3.9c-2.9-0.3-8.8-3.9-8.8-3.9s0-2.9-0.9-2.9s-2.6-1.4-2.6-3.2
		c0-1.7-0.6-4.7-0.6-4.7s-0.6-1.7,1.4-1.7c2,0,2-1.4,5-0.9c3.2,0.6,3.9,2.3,6.2,1.7c2.3-0.6,4.7-3.5,5.2-4.1
		c0.4-0.9,1.8-5.3,1.8-5.3V848l2.3-3.9c0,0,3.5-2.6,4.1-1.7c0.9,0.9,0.9-1.7,0.9,0.9c0,2.6-0.6,3.6,0.9,4.1c1.4,0.6,3.2,0.6,3.2,0.6
		s1.7-1.4,1.7-2.9s-2.3-5.6-2.3-5.6l-2.9-2.6l-1.2-2.6c0,0,0,2,2.9,0c2.9-2,5.6-3.2,5.6-5.3s-0.6-5.6-0.6-5.6s-1.2-1.4-3.2-1.4
		c-2,0-2,0.9-3.9-0.3c-2-1.2-7-3.2-7.3-3.9c-0.3-0.9-0.6-4.1-0.6-4.1l-1.5-2.9c0,0-3.6-0.6-4,0.9c-0.6,1.4-0.3,1.7-2.3,2.9
		c-2,1.2-4.1,2.9-5,1.4c-0.9-1.4,0.1-8.5,0.1-8.5l-7.9-7.9c0,0-1.2,3.6-2.9,3.6s-6.2-0.6-7.3-0.6c-1.2,0-11.2,0.6-11.2,0.6l-5.6,3.2
		v5l0.9,4.7l-1.7,4.4H478c-0.9,0-2.6-4.7-2.6-4.7s0.6,0.3-1.2,2c-1.7,1.7-4.7,5-4.7,5s-0.6,0.9-2.6,1.7s-2.9,0.9-4.4,0.9
		c-1.5,0-6.7-1.7-6.7-1.7s-1.4-1.7-3.6,0c-2.1,1.7-4.1,3.2-4.1,3.2l-2,4.4l-2.9,0.3l-2.3-6.5c0,0-0.3-2.3-3.6-2.3
		c-3.5,0-19.1,0.6-19.1,0.6l-1.7-6.7l-11.7-1.2c0,0,0.3,2.9-0.9,3.2c-1.2,0.3-11.7,0.3-11.7,0.3l-1.4-5.9l-2.3-2.3
		c0,0,0.9,1.2-0.6,2.6c-1.4,1.4-4.7,2.9-4.7,2.9s-3.5-0.3-3.5,1.4c0,1.7-0.3,4.7-0.3,4.7s-1.7,0.3-2.9,0.3c-1.2,0-6.2,0.6-7.6,0.6
		c-1.4,0-3.6,1.4-4.1,2.6s-2.9,5.9-2.9,5.9l0.3,7.6l-4.4,0.6l-1.7,3.5l-3.5-1.2l-4.7-0.6l-5.3,3.2l-3.9,2.6c0,0-3.2-0.6-4.7-1.2
		c-1.7-0.6-5-2.3-5-2.3l-2.6-9.1l-8.5-1.4l-2.3,2l-10.6-0.3l-3.5-5.9l-7.3-2v-3.6L295,823.8L295,823.8L295,823.8z"/>
	<g>
		<g>
			<g>
				<g class="st50">
					<circle cx="359" cy="731.4" r="10.2"/>
					<circle cx="384.4" cy="736.4" r="7.9"/>
					<circle cx="333.1" cy="736.4" r="7.9"/>
					<path d="M325.2,746.5c0,0,3.9,7.8,13.5,2.6c0,0-2.4,6.5-1.5,17h-19C318.2,766.3,316.7,751.9,325.2,746.5L325.2,746.5z"/>
					<path d="M392.3,746.5c0,0-3.9,7.8-13.5,2.6c0,0,2.4,6.5,1.5,17h19C399.2,766.3,400.7,751.9,392.3,746.5L392.3,746.5z"/>
					<path d="M348.6,742.9c0,0,8.8,12.6,20.7,0.2c0,0,12,2.8,8.3,29.5h-37.1C340.5,772.4,335.9,750.1,348.6,742.9z"/>
				</g>
				<text transform="matrix(1 0 0 1 327.6353 797.3817)" class="st21 st23" id="Consumers_Madurai"></text>
			</g>
			<g>
				<g class="st50">
					<polygon points="467.9,714.3 442.6,735.4 454.2,738.9 446.3,757.4 471.2,737.2 459.9,734.1 					"/>
					<path d="M435.2,742c0.2-2-4.6-24.5,23.1-29.7c0,0-1.3,2-0.5,3.1c1.3,1.3,6.4-2.8,6.2-4.8c-0.2-1.9-4.6-6.1-6.4-4.5
						c-0.7,0.7,0.5,2.6,0.5,2.6s-30.5,1.9-26.4,33.8C431.9,743.6,435.1,745.7,435.2,742z"/>
					<path d="M469.2,714.7c1.5,1.3,22.4,11.2,9.4,36.4c0,0-0.9-2.4-2-2.2c-1.9,0.4-1.5,6.7,0.2,7.8c1.7,1.1,7.6,0,7.4-2.2
						c-0.2-0.9-2.4-1.3-2.4-1.3s16.9-25.5-10.9-41.5C469.7,711.2,466.4,712.3,469.2,714.7L469.2,714.7z"/>
					<path d="M472,757.9c-1.7,0.7-18.1,13.5-32.9-7.2c0,0,2.2,0.2,2.6-0.9c0.5-1.7-4.8-4.1-6.4-3.1c-1.5,0.9-3.1,6.2-1.3,6.9
						c0.9,0.4,1.9-1.5,1.9-1.5s13.6,24,37.7,8.3C474.5,759.8,475.1,756.7,472,757.9L472,757.9z"/>
				</g>
				<text transform="matrix(1 0 0 1 419.3857 786.2596)" class="st21 st23" id="Consumption_Madurai"></text>
			</g>
			<g>
				<g>
					<path class="st1" d="M533.4,730.3H521c0,0-1.7-0.7,0-4.5c0,0,1.5-3.9,6.1-4.5h40.5c0,0,6.5,0.9,6.7,6.5v38.9h13.3
						c0,0,2.2,6.1-5.3,8.8l-40.8,0.4c0,0-5.9-0.4-7.6-6.9L533.4,730.3L533.4,730.3z"/>
					<path class="st1" d="M587.4,766.8c0,0-29.9,0.5-38.8,0.2c-2.6,0-2,9.6-10.2,7.9"/>
					<path class="st1" d="M527.8,720.9c0,0,5.7,0.5,5.7,9.6"/>
					<path class="st20" d="M567.7,733.1h-12.6c-0.2,0-0.5-0.2-0.5-0.5v-0.9c0-0.2,0.2-0.5,0.5-0.5h12.6c0.2,0,0.5,0.2,0.5,0.5v1.3
						C568.1,732.9,567.9,733.1,567.7,733.1L567.7,733.1z"/>
					<path class="st20" d="M567.7,739.7h-12.6c-0.2,0-0.5-0.2-0.5-0.5V738c0-0.2,0.2-0.5,0.5-0.5h12.6c0.2,0,0.5,0.2,0.5,0.5v1.3
						C568.1,739.6,567.9,739.7,567.7,739.7z"/>
					<path class="st20" d="M567.7,747h-26.6c-0.2,0-0.5-0.2-0.5-0.5v-1.3c0-0.2,0.2-0.5,0.5-0.5h26.6c0.2,0,0.5,0.2,0.5,0.5v1.3
						C568.1,746.8,567.9,747,567.7,747z"/>
					<path class="st20" d="M567.7,753.6h-26.6c-0.2,0-0.5-0.2-0.5-0.5v-1.3c0-0.2,0.2-0.5,0.5-0.5h26.6c0.2,0,0.5,0.2,0.5,0.5v1.3
						C568.1,753.4,567.9,753.6,567.7,753.6z"/>
					<path class="st20" d="M567.7,760.8h-26.6c-0.2,0-0.5-0.2-0.5-0.5v-1.3c0-0.2,0.2-0.5,0.5-0.5h26.6c0.2,0,0.5,0.2,0.5,0.5v1.3
						C568.1,760.6,567.9,760.8,567.7,760.8z"/>
				</g>
				<text transform="matrix(1 0 0 1 523.1348 799.0282)" class="st21 st23" id="Billed_Madurai"></text>
			</g>
			<g>
				<g>
					<g class="st50">
						<path class="st20" d="M638.4,862.9l6.2-8.6c0,0,0.5-1.1-0.4-1.7l-10.5-6.7c0,0-5.7-3.3-14-1.3c0,0-11.7,3.7-19,4.8
							c-2.6,0.4-6.5,0-10.2-0.4c-1.1,0-3.7,1.3-1.9,3.5c0,0,6.7,4.3,21.4,1.1c0,0,4.6-0.9,0.7,1.3c0,0-13.5,3.7-22.4-1.3
							c0,0-16.4-7-19.5-4.3c0,0-2.2,1.3,1.1,2.4c0,0,10.5,3.1,14.3,7c0,0,16.4,9.3,24,9.4c0,0,5.5,1.3,13.3-3.1
							c0,0,8.5-7.2,14.8-1.7C636.1,862.9,637.3,863.9,638.4,862.9L638.4,862.9z"/>
						<path class="st20" d="M583.4,848.4l2,0.9c0,0-0.2-4.8,7.6-3.3c0,0,8.6,0.5,11.1-0.9l10.5-2.9c0,0-1.1-13.6-3.7-16.2
							c0,0-4.6-5.2-7.8-5.9h-8.8c0,0-6.9,3.1-8.5,7.4C586.3,827.7,583.4,831.9,583.4,848.4L583.4,848.4z"/>
						<path class="st20" d="M594.3,819h9.6l2.9-7.4c0,0,1.1-5-4.6-3.1c0,0-3.3-5-6.9,0.7c0,0-6.7-0.9-4.8,4.3L594.3,819z"/>
					</g>
					<path class="st3" d="M600,841l-6.1-6.9c0,0-0.2-0.2,0-0.4v-1.5c0,0,0.2-0.4,0.4-0.4c0,0,4.6,0.5,5-2h-5c0,0-0.4,0-0.4-0.4V828
						c0,0,0-0.4,0.4-0.4h5c0,0-0.5-1.5-3.9-1.3h-1.1c0,0-0.4,0-0.4-0.4V824c0,0,0-0.4,0.4-0.4h9.9c0,0,0.4,0,0.4,0.4v1.3
						c0,0,0,0.2-0.4,0.4h-2.9c0,0,0.7,1.1,0.9,1.7h2c0,0,0.4,0,0.4,0.4v1.3c0,0,0,0.2-0.4,0.4h-2c0,0-0.2,3.5-4.8,4.1l5.3,6.4
						c0,0,0.4,0.4,0.2,0.5c0,0,0,0.4-0.4,0.4L600,841C600,841,600,841,600,841L600,841z"/>
				</g>
				<text transform="matrix(1 0 0 1 576.7236 886.7059)" class="st21 st23" id="Revenue_Madurai"></text>
			</g>
		</g>
		<text transform="matrix(1 0 0 1 366.4326 685.9003)" class="st21 st23">MADURAI</text>
	</g>
</g>
		
<!--Erode-->		
<g class="svgmap">
	<path class="st25" d="M343.7,625.5l-1.9-1.8l-2.8-3.2l-3.5-2.3l-3-2l-1.7-0.6l-1.9-2.1l-0.7-3.4l0.5-2.9l-0.2-2.8l-0.8-2.5
		l-0.6-2.5l0.5-3.8l1-2.4l1.9-2.9l0.3-1.4l0.1-2.5l-0.1-1.3l-0.3-2.4l-1.5-3.2l-1.2-1.5c0,0-1.4-4-0.6-4.7l3.7-0.9l1.3-0.3h2.1
		l1-0.9l1.2-2l1.3-2.4l1.3-0.5l1.3-0.8c0,0,0.4-2.9,2-2.8l1.3,0.3l0.7-2l0.6-2.6l2.2-1l1.5-0.9l1.6-3.1l2.4,2.3l6-1l0.3-5.1l5.6-1.7
		l-0.4-3.3l-5.9-2.5l-0.6-8.3l-3.9-4.7l-0.9-1.4l-1.2-1.5l-1.3-1.3c0,0-0.3-0.3-0.7-0.1c0,0-2.7,0-3.2-0.7c0,0-4.6-3.8-6.4-2.6
		l0.8-3.3c0,0,3.1-2.9,3.4-3.6c0,0,0.3-3.2-0.2-3.8c-0.4-0.6-1.3-2-1.5-1.8c0,0-3.5-6.7-5-6.8l-1.4-5.4c0,0,1.5-2.9,1.3-3.6
		c0,0-2.2-1.9-2.8-2.1c0,0,0.8-1.6,1.5-1.9c0,0,0.6-4-0.3-4.3l-4,1.3l-0.7,2.4l-0.3,3.2l-0.1,4.6l-0.3,0.6l-1.7,0.4l-2.6-0.1
		l-3.3-1.2l-2.6-1.4l-1.4-0.9l-1.2-1.3l1-0.8l1-0.6l0.1-1.8l-0.7-1.4l-0.4-2l-1.2-0.6l-1.3,0.7l-1.2,0.7l-1.5,0.9l-2.4,0.4h-2.4
		c0,0-1.7-0.1-1.7,0.1c0,0.3-1.3,0.3-1.4,0.4c-0.2,0.1-1.7,0.3-1.7,0.3l-1.2-1.2l-1.2-0.6h-0.7l-0.7-0.4l-1.2-1.6l0.6-2
		c0,0,1.4-1.7,1.6-0.9c0,0.1,1.8-0.5,1.8-0.5l0.2-0.4v-0.7h-1.4l-1.3,0.1l-1.4,0.1l-1.8,1l-0.7,0.7l-0.7,1.2l-0.9,0.4l-2.1,0.1l-3-2
		l-1.3-0.1l-2.7-0.4l-1.8-1.4l-0.9-1.8l-0.3-2.3l-0.3-1.7l-1.5-3.2l-1.3-1.5l-2.9-0.3h-2.7l-4.4-0.3h-4.4l-1.4,0.3l-2.3,1l-2.1,0.7
		c0,0-1.2,0.6-1.2,0.7c0,0.1-1.5,1.4-2,1.4s-3.6,1.5-3.6,1.5s-5.2-1.9-5.9-3.9c0,0,4.3-16.6,7.1-15.7c0,0,0.2-0.3,0.8-4.7
		c0,0-0.1-3.9-0.9-5l-3.9-5.6c0,0-0.6-1.4,1-1.7c0,0,2.7-0.4,3-1.2c0,0,0-1.5-0.9-2.1c0,0,1-2-3.5-4.4h-12.4c0,0-2,0-1.3-2.1l2-3.2
		v-2.4l-7.1-0.4l-3.3-1.3v-24.8l5.8-1.5l3.6-1.3l-0.1-12.4l9.3-1.2l0.7,2l1,1.4l6.2,0.7l1.8-0.6l-0.3-5.6h9.1l1,7.7l3.2,0.4l2.7,2.1
		l2.7,1l3.9,2l1.3,3l3.2,1.5l2.3-1.3l0.9-1.7l0.4-1.3l-3.5-1.2l-1.5,0.1L281,387v-1.3l7.9-0.4l2.6-1.4l3.3-1.7l6.7-0.1l4.9-0.1
		l3.5-1.7l6.5-1.7l5.8-1.3l3,3.8l1.4,2.7l2.7,2.3l4.1-1.3l5-1.2l6.2-0.3l0.7,4.3l0.7,4.1l3.5-0.4l2.7-1l1.8-3.6l2-2.4l2.3-1.8l2-1.3
		l-0.1-21.8l4.9-1.8l3.5-4.4l0.9-1.7H395l1-2.3l6.8,0.3l0.7,3.8l16.5,0.7l1.2,3.5l4.1,0.4l1.7,2l19.9-0.4v3.3l10.5-0.4l0.9-2.9
		l23.1-0.6l1.5-4.3l7.1-3.5h6l2.6-1.5l10.6-0.7l3.8-2.3l8.2-0.7v4.3l-3.3,2.4l0.4,8l7.4,1.7l1.3-0.9v-7.7l9.4,3.2l3.5,3.5l5.8-0.9
		l1.4,6.3l-2.6,1.7c0,0-1.5,4.1-1.7,4.6c-0.1,0.4-1.4,4.3-1.4,4.3l-3.5,1.8l-2.9,0.7c0,0-0.7,3,0,3.5c0.7,0.6,2.9,0.6,2.9,1.7
		c0,1.2,0.1,3.5,0.1,3.5l2.6,0.1l2.7-1.7l3.6-0.7l1.3-2.1l0.7-5.9l0.7-2l5.8-0.6l1.8-5.8l3-2.1l3.8,6.3c0,0,0.9,1.3,1.3,2.1
		c0.4,0.9,3.6,3,3.6,3l5.9,1.7l18.5-0.1l1.8-4.1l5-0.4l1.4-1.8l2.1-5l2.3-1.4l1.8-1.3l5-0.4l1,2.6c0,0,0.6,2.1,1,2.7
		c0.4,0.6,0.9,1.7,0,2.6c-0.9,0.9-2.1,4.6-2.1,4.6l-6.8,0.1l0.4,7.6l-4.1,1.3l0.4,3.8c0,0,3.8,1.3,4,2.3c0.1,1-0.9,10.9-0.9,10.9
		l0.6,3.8c0,0,4,2.3,4,3c0,0.7,1,5.3,1,5.3s3,1.7,4,1.7c1.1,0,3.3-5,3.3-5s1.4-1.7,2.3-2.1c0.9-0.4,6.2-4,6.2-4l2.7-1.8l4.9,0.6
		c0,0,1.8-0.6,1.3,1c-0.6,1.7-2.1,4.4-2.7,5.8c-0.6,1.3-0.4,4,0.1,5.8c0.6,1.7,0.6,3.6,0.6,4.9c0,1.3,1.8,1.4,3.8,2.6
		c1.8,1,5.3,1,5.8,2.3c0.4,1.3,2.7,4.4,2.7,5.8s1.8,3.2,2.6,4.1c0.8,1-0.9,2.6,0,3.6s2.1,2.1,0.1,3.5c-2,1.3-4,2.3-4.7,3
		c-0.9,0.6-1.7,2.6-1.7,3.2s3.2,3.2,3.2,3.2s1,1.3,0.9,2.1c-0.1,0.9-1.8,1.8-2.1,2.6c-0.1,0.6-0.1,3-0.1,3v2.1c0,0-1.7,0-4.1,0.4
		c-2.4,0.4-5.8,0.1-6.5,0.1c-0.9,0,0,1.8-0.9,0c-0.9-1.8,0-5-1-5.5c-1-0.4-3-0.4-4.6-0.4c-1.7,0-3.8,0.1-3.8-1.8
		c0-1.9-2.3-2.7-2.3-2.7s-0.6,2.3-3.2,3c-2.6,0.7-6.7,2.1-6.7,2.1l0.6,1.4l-0.6,1.7c0,0,3.5,0.1,3.5,1.7s0,2.6-0.1,3.6
		s-2.6,3.5-2.6,3.5s-3-0.9-3.5-0.1c-0.4,0.7-1,4-2.1,4.9c-1.2,0.9-4.9,3.8-4.9,3.8s-2.6,0.9-4,1.8c-1.4,1-2.6,1.7-5.3,1.8
		c-2.7,0.1-4.6,0.1-4.6,0.1l-2.1-10.5l-3.6-0.9c0,0-3.5-3-4.1-3c-0.9,0-5.9,3-5.9,3l-2.7,3.6l1,14.3l-6.2,2.1l0.4,4.1l-2.6,1v6.3
		l-5.5,1.3l-1,3.6l-2.1,2.1l-2.7,4.1v2.3l-3.2,0.6l-1.7,6.2l-2.3,1.3l-0.1,8.9l1,2.1l-1.4,10.2h-4.9l-1.7-3.8c0,0-1.7-1.3-1.7-2.7
		c0-1.4-1.5-8.5-1.5-8.5l-7.9,1.4l-6.2,1.3c0,0-1,0.1-1,1.3s0.9,2.7,0.9,2.7l-5.8-1.7l-2.1,3.8l1,1.3l-3.2,1l-3.2,3.5l-3.5,1.4
		l-0.6-6.5c0,0-0.9-4.1-1.7-4.1c-0.9,0-4.6-2.6-5.5-3c-0.9-0.4-1.8-0.6-5-1c-3.2-0.4-3.2-0.4-6.8-1.3c-3.8-0.9-5.8-1.3-7.3-1.3
		c-1.7,0-5.3-1.4-5.3-1.4l-4.6,0.6l-4.6,3.2c0,0-2.1,3.6-2.6,4.6c-0.5,1.1,4,2.7-1.3,3.2c-5.3,0.4-6.8,1-9.3,1s-6.2,0-7.1-0.6
		s-4.1-4.1-5.5-4.6c-1.3-0.4-5.3-1.7-5.3-1.7s-0.1,2.7-0.6,3.5c-0.4,0.6-1.3,2.7-1.4,5.5s0.1,4.9,0.1,7.3s0.4,4.6-0.1,5.5
		c-0.5,0.9-2.6,3.5-3.5,5.5c-0.9,2.1-1.4,3.6-1.3,5.8c0.1,2.1,3.8,6.8,4.6,7.6c0.9,0.7,5,3.5,5,3.5s1.8,2.1,4.1,3.8
		c2.3,1.7,5.8,1.8,5.8,1.8h1.8v2.9c0,0,1.2,1.3,2,1.4s2.6,1.4,2.6,2.1s0.1,1.5,0,1.8c-0.1,0.3,1,4,1,4l-0.1,4.1l-5.3-0.1l-1-4.6
		l-5.9,0.3l-1.4-3.8l-2.7-1.5l0.6,6.7c0,0,0.7,0.7,1,1.4c0.3,0.7,1.2,1.7,1.2,1.7l0.3,3.9c0,0-1,2.9-1.4,3.5
		c-0.3,0.6-1.2,1.4-1.7,1.7c-0.6,0.3-1.4,0.7-2,1s-2.6,0.7-3.3,0.9c-0.6,0.1-3.9,0.1-3.9,0.1s-1-0.6-1.3,0.4c-0.3,1-0.6,2.4-0.6,3.8
		c0,1.3-0.6,2.7-1.2,3.2c-0.6,0.4-1.7,0.1-2.3,0.6c-0.6,0.4-2.1,1.4-3,2.1c-0.9,0.6-2,1.7-2.4,2c-0.4,0.3-3,0.9-3.3,0.9
		s-1.1-0.6-1.1-0.6s-0.7,0.2-1.2-0.3c-1.3-1.2-1.1-15-1.1-15l2.4-1.9l2.1-3.1l-0.6-1.4h-4l-2,2.1l-5.2,0.6l-0.3,10.1l-15.9,1.1
		l-0.3-3.9l-2.8-3l-2.9,2.7l-0.5,4.9l-4.7,1.2l-0.8,5.1l-3.9,1l-3.4-1.1l-3.1-2.7l-3.6,0.1l-1.8,0.5l-1.8,1.8l-0.9,1.6
		c0,0-2.9,1.1-3.3,1C348.4,624.6,343.7,625.5,343.7,625.5L343.7,625.5z"/>
	<g>
		<g>
			<g class="st50">
				<circle cx="310.9" cy="402" r="10.2"/>
				<circle cx="336.2" cy="407" r="7.9"/>
				<circle cx="284.9" cy="407" r="7.9"/>
				<path d="M277.1,417c0,0,3.9,7.8,13.5,2.6c0,0-2.4,6.5-1.5,17h-19C270,436.8,268.5,422.5,277.1,417L277.1,417z"/>
				<path d="M344.1,417c0,0-3.9,7.8-13.5,2.6c0,0,2.4,6.5,1.5,17h19C351,436.8,352.5,422.5,344.1,417L344.1,417z"/>
				<path d="M300.4,413.4c0,0,8.8,12.6,20.7,0.2c0,0,12,2.8,8.3,29.5h-37.1C292.3,442.9,287.7,420.7,300.4,413.4L300.4,413.4z"/>
			</g>
			<text transform="matrix(1 0 0 1 279.4487 467.9344)" class="st18 st23" id="Consumers_Erode"></text>
		</g>
		<g class="st50">
			<g>
				<polygon points="403.9,450.7 378.7,471.8 390.3,475.4 382.4,493.9 407.3,473.6 395.9,470.6 				"/>
				<path d="M371.3,478.5c0.2-2-4.6-24.5,23.1-29.7c0,0-1.3,2-0.5,3.1c1.3,1.3,6.4-2.8,6.2-4.8c-0.2-1.9-4.6-6.1-6.4-4.5
					c-0.7,0.7,0.5,2.6,0.5,2.6s-30.5,1.9-26.4,33.8C368,480,371.2,482.1,371.3,478.5L371.3,478.5z"/>
				<path d="M405.3,451.1c1.5,1.3,22.4,11.2,9.4,36.4c0,0-0.9-2.4-2-2.2c-1.9,0.4-1.5,6.7,0.2,7.8c1.7,1.1,7.6,0,7.4-2.2
					c-0.2-0.9-2.4-1.3-2.4-1.3s16.9-25.5-10.9-41.5C405.8,447.6,402.5,448.7,405.3,451.1L405.3,451.1z"/>
				<path d="M408.1,494.3c-1.7,0.7-18.1,13.5-32.9-7.2c0,0,2.2,0.2,2.6-0.9c0.5-1.7-4.8-4.1-6.4-3.1c-1.5,0.9-3.1,6.2-1.3,6.9
					c0.9,0.4,1.9-1.5,1.9-1.5s13.6,24,37.7,8.3C410.6,496.3,411.2,493.1,408.1,494.3L408.1,494.3z"/>
			</g>
			<text transform="matrix(1 0 0 1 355.4551 522.6976)" class="st18 st23" id="Consumption_Erode"></text>
		</g>
		<g>
			<g>
				<path class="st1" d="M456.7,420.5h-12.4c0,0-1.7-0.7,0-4.5c0,0,1.5-3.9,6.1-4.5h40.5c0,0,6.5,0.9,6.7,6.5v38.9h13.3
					c0,0,2.2,6.1-5.3,8.8l-40.8,0.4c0,0-5.9-0.4-7.6-6.9L456.7,420.5L456.7,420.5z"/>
				<path class="st1" d="M510.7,457c0,0-29.9,0.5-38.8,0.2c-2.6,0-2,9.6-10.2,7.9"/>
				<path class="st1" d="M451,411.1c0,0,5.7,0.5,5.7,9.6"/>
				<path class="st20" d="M491,423.3h-12.6c-0.2,0-0.5-0.2-0.5-0.5v-0.9c0-0.2,0.2-0.5,0.5-0.5H491c0.2,0,0.5,0.2,0.5,0.5v1.3
					C491.4,423.1,491.2,423.3,491,423.3z"/>
				<path class="st20" d="M491,429.9h-12.6c-0.2,0-0.5-0.2-0.5-0.5v-1.3c0-0.2,0.2-0.5,0.5-0.5H491c0.2,0,0.5,0.2,0.5,0.5v1.3
					C491.4,429.8,491.2,429.9,491,429.9z"/>
				<path class="st20" d="M491,437.2h-26.6c-0.2,0-0.5-0.2-0.5-0.5v-1.3c0-0.2,0.2-0.5,0.5-0.5H491c0.2,0,0.5,0.2,0.5,0.5v1.3
					C491.4,437.1,491.2,437.2,491,437.2z"/>
				<path class="st20" d="M491,443.8h-26.6c-0.2,0-0.5-0.2-0.5-0.5v-1.3c0-0.2,0.2-0.5,0.5-0.5H491c0.2,0,0.5,0.2,0.5,0.5v1.3
					C491.4,443.6,491.2,443.8,491,443.8z"/>
				<path class="st20" d="M491,451h-26.6c-0.2,0-0.5-0.2-0.5-0.5v-1.3c0-0.2,0.2-0.5,0.5-0.5H491c0.2,0,0.5,0.2,0.5,0.5v1.3
					C491.4,450.8,491.2,451,491,451z"/>
			</g>
			<text transform="matrix(1 0 0 1 446.4258 489.2445)" class="st18 st23" id="Billed_Erode"></text>
		</g>
		<g>
			<g>
				<g class="st50">
					<path class="st20" d="M590.2,442l6.2-8.6c0,0,0.5-1.1-0.4-1.7l-10.5-6.7c0,0-5.7-3.3-14-1.3c0,0-11.7,3.7-19,4.8
						c-2.6,0.4-6.5,0-10.2-0.4c-1.1,0-3.7,1.3-1.9,3.5c0,0,6.7,4.3,21.4,1.1c0,0,4.6-0.9,0.7,1.3c0,0-13.5,3.7-22.4-1.3
						c0,0-16.4-7-19.5-4.3c0,0-2.2,1.3,1.1,2.4c0,0,10.5,3.1,14.3,7c0,0,16.4,9.3,24,9.4c0,0,5.5,1.3,13.3-3.1c0,0,8.5-7.2,14.8-1.7
						C587.9,442,589.1,443,590.2,442L590.2,442z"/>
					<path class="st20" d="M535.2,427.5l2,0.9c0,0-0.2-4.8,7.6-3.3c0,0,8.6,0.5,11.1-0.9l10.5-2.9c0,0-1.1-13.6-3.7-16.2
						c0,0-4.6-5.2-7.8-5.9h-8.8c0,0-6.9,3.1-8.5,7.4C538.1,406.8,535.2,411,535.2,427.5L535.2,427.5z"/>
					<path class="st20" d="M546.1,398.1h9.6l2.9-7.4c0,0,1.1-5-4.6-3.1c0,0-3.3-5-6.9,0.7c0,0-6.7-0.9-4.8,4.3L546.1,398.1z"/>
				</g>
				<path class="st3" d="M551.8,420.1l-6.1-6.9c0,0-0.2-0.2,0-0.4v-1.5c0,0,0.2-0.4,0.4-0.4c0,0,4.6,0.5,5-2h-5c0,0-0.4,0-0.4-0.4
					v-1.3c0,0,0-0.4,0.4-0.4h5c0,0-0.5-1.5-3.9-1.3h-1.1c0,0-0.4,0-0.4-0.4v-1.9c0,0,0-0.4,0.4-0.4h9.9c0,0,0.4,0,0.4,0.4v1.3
					c0,0,0,0.2-0.4,0.4h-2.9c0,0,0.7,1.1,0.9,1.7h2c0,0,0.4,0,0.4,0.4v1.3c0,0,0,0.2-0.4,0.4h-2c0,0-0.2,3.5-4.8,4.1l5.3,6.4
					c0,0,0.4,0.4,0.2,0.5c0,0,0,0.4-0.4,0.4L551.8,420.1C551.8,420.1,551.8,420.1,551.8,420.1L551.8,420.1z"/>
			</g>
			<text transform="matrix(1 0 0 1 528.5371 465.787)" class="st18 st23" id="Revenue_Erode"></text>
		</g>
		<text transform="matrix(1 0 0 1 373.3179 396.7621)" class="st21 st23">ERODE</text>
	</g>
</g>
		
<!--Trichy-->		
<g class="svgmap">
	<path class="st26" d="M431.8,588.7l0.4,6l0.6,1.3l1.2,1.4l0.9,1.8v3l-0.6,1.4l-1.7,2.7l-1.5,1.2l-1.4,0.7l-0.6,0.6l0.3,1.4v3.3
		l0.3,5v2.6c0,0-0.1,1.4,0.9,1.4l3.9-0.7l2.6,0.3l5.2-0.6l3.3-0.7l1.8-1.2l1.4-0.7l6.2,0.4l1.8,1.2l0.9,1.5l5.8-7.3l3.8-2l3.8-3.8
		l0.3-3l1.3-3.6l0.4-1.4c0,0,0.1-1.3-0.9-1.7l-3.9-2.1c0,0-1.3-1.8-1.2-2.3c0,0,2.3-2.9,6.3-3.5c0,0,7.1-0.3,7.9,0.7
		c0,0,0.1,0.7,0,1.4l-0.1,2c0,0,0,1.3,0.4,1.4l2.9,1.5l4.4-3.3l1.5-0.7l0.1-1.2l0.6-2.4c0,0,0.3-4.3,0.7-4.6c0,0,8.6-4.3,10.3-4.4
		l3.3,2.6v1l-0.3,0.7l-0.6,1.3l-0.6,1l-1.4,0.9l-2.4,1.7l-1,1.5l-0.3,2.3c0,0,0.1,3.2,0.1,3.3s0.1,5,0.1,5l0.3,7.6l-4.7,1.4l0.7,6.5
		l3.9,1.4l-2.4,4l-2.1,2.1l-1.5,1.5l-1.2,3.2l1.3,1.7l1,2.4l0.4,1.7l5.9-0.3c0,0,1.4,0.4,1,1.2l-1.8,4.3l0.6,1.7l1.4,1.4l1.4,0.3
		l1,0.7l3.6,3.9l1.4,2.1l0.7,1.5h3.6l3.6,0.7l4.1-0.7l1.8,1l0.6,1.8l2.4,1l2.7,1c0,0,0.7,2,0.7,2.4v2.3l-0.6,1.5l-0.7,0.7l-1.4,0.4
		l-0.9,0.3c0,0-0.4,1.3-0.4,1.4c0,0.1,0.1,3.5,0.1,3.5l0.3,2.7l0.7,1.5l0.6,0.6l1.2,0.4l1,0.3l0.9,1l1,0.9l1.3,0.9l1.3,0.3h1.7
		l0.9,0.1l0.4,0.9l0.1,3.3l-0.1,2.7v1.7l1.5,2l0.4,1.5l0.3,1.7l0.6,1.2l0.4,0.6l0.7,0.1h0.6l1.3-1.2l2.1-4.4l3.8-0.7l3.2-0.4
		l2.3-3.2l1.3-3.8c0,0,0.3-2.3,0.3-2.4v-2c0,0,1.4-1,1.7-0.9c0.3,0.1,4-0.9,4-0.9l1-1.4l0.6-1.8l0.3-2l0.4-1.2l1.5-0.3l2.4-0.6
		c0.1,0,2.3,0.1,2.3,0.1s1,1.7,1,1.8s0.7,5,0.7,5c0,0.1,0.7,2.1,0.7,2.1l1.7,0.6c0,0,0.7,0,0.9,0.3c0.1,0.3,0.9,1.4,0.9,1.5
		s0.4,1.2,0.3,2s-0.1,4.7-0.1,5s0.1,5.9,0.1,5.9l-15.8,1.3l-0.1,4.6l8.5,1l-0.4,11.7l14.1,0.6l-0.1-11.7l12.6-7.9c0,0,3-0.9,3.5-0.7
		c0.4,0.1,5.6,4.7,5.9,5s2.9,3.3,2.9,3.3l0.6,3.6l0.9,1.4c0,0,0.9,0.6,1,0.9c0,0.3-0.7,3.2-0.7,3.3c0,0.1-0.7,2.3-0.9,2.6
		c-0.1,0.4-1,6.2-1,6.2l0.7,1.7l2.6,0.4l6-1.8l4.4-1.5l1.8-0.9c0,0,0.6,0.1,0.9,0.7c0.3,0.6-0.4,2.4-0.4,2.4l6.3-0.1l1-2.4l3.8-3
		l2.4-3.8l3-1.4l0.3,0.3l3.5,3.5l2.4,3.6l1.7,2.3l0.4,2.6l1.4,0.7h14.2l0.6,0.3c0,0,0.7,3.6,0.7,3.8c0,0.1,0.9,2.4,0.9,2.4l0.4,1.2
		c0,0,3-1.5,3.3-1.8c0.3-0.1,3.5-1.7,3.8-1.8c0.3-0.1,5.8-1.4,6-1.5c0.3,0,2.3-0.1,2.3-0.1v7.3l-7.7,2l-1.8,1.5l-1.8,2.4l-1.4,2.3
		c0,0-0.7,2.6-0.7,3.2v5.2c0,0.3,0.7,1,0.7,1l1.5,0.6c0,0,3.2,0.4,3.6,0.4s2.1-0.4,2.4,0c0.3,0.4,1.7,1.8,1.7,1.8l3.5,4.6
		c0,0,1.5,4.4,1.7,4.9c0.1,0.4,1.7,3.8,1.7,3.8l3.3,1l3.5,0.4c0,0,0.1,1.5,0.4,2.4c0.3,0.7,0.9,3,0.6,3.9c-0.1,0.9-0.1,2.7,0,3.2
		c0.1,0.4,3.2,1.3,3.2,1.3l2.7,1.5l5.5-0.9l0.6-2.6l0.6-1.8l5.5-0.6l2-0.9l1.4-6.2l3.6-0.6l2.1-3.8l4.6-1.8l1-5l3.6-2.3
		c0,0,3,0.3,3.5-0.4c0.5-0.7,1.4-4.6,1.4-4.6l4.3-1.8c0,0,1-1.8,1-2.3c0-0.4,1.5-3,1.5-3l0.6-3.3c0,0-2.1-3-2.1-3.5
		c-0.1-0.6-1.3-3.5-1.4-3.9c-0.1-0.6-1.3-1.8-1.5-2.9c-0.3-1-1.2-3.8-1.2-3.8s0.7-4.4,0.3-5.6s-0.9-2.1-0.9-2.1l1.2-3.5
		c0,0,2.7-1,3-1.4c0.3-0.4,1-3,1-3.8c0-0.7,3.8-2,3.8-2s1,0.3,1.3-1.2c0.3-1.4,0.7-6,0.7-6s4.9-0.3,5-0.7s1.8-2.6,2.1-2.6
		s2.4-0.6,2.6-1.2c0.2-0.6,1.8-3.5,2.3-4.1c0.4-0.6,5-3,5-3l1-1.3L800,684v4.7l18.8-0.6v3.6l3.6-0.6l2-4.4l5.6,3.2l2.6,2.6l30.9-1.4
		v-3l7,1.7V667l-2.6-1.2l-1.2-64.3l-2-2.3l-0.6-21.4l-6.2-1.3l-0.6-2.6v-2.3l1.2-4.4c0,0,1.4-1.7-1.2-2c-2.6-0.3-16.4,0-16.4,0
		l-4.1-3.2l-2.9-3.5c0,0,0.3-1.2,1.4-1.7c1.2-0.6,4.4-1.4,4.4-1.4l2.9-1.7l-1.4-3.6l-1.4-2l-0.3-7h-6.7l0.9,3.5l-9.9-1.4l-3.9,0.3
		l-2.6,3.2l-3.6,3.5c0,0-3.5,2-5,1.2c-1.7-0.9-7.9-1.2-7.9-1.2s-1.4-1.2-3.2,0c-1.7,1.2-4.1,1.4-4.1,1.4l0.3-5.3v-4.7l-0.9-2.3
		l3.9-6.7l2.3-3.2l-1.7-3.5l-1.7-5h4.1l-0.1-7.8h-7.3l-4-1.4l-1-2.4l0.3-2l1.2-2l2.4-3.8l2.4-3.5l3.2-3.5l1.3-2.6l-13-0.7l-0.6-9.6
		l-5.5-1.2l-3.3-2h-1l-1.4-2.3l-6.5-0.9c0,0-2.1,0.6-2.1,0c0-0.6,0.4-3.9,0.4-3.9l-0.6-6.2l-10-0.7l-1.7-4.3l-3.8,5.2l-1,4l-13.6,1
		l-3-5.5l-3.5,5l-7.3,1.2l-0.7-5.2l-10.3-0.7l-5.3-2.6l-10.2,1.3l-3.5,0.3l-0.1,4.6l-4.6-0.7l-1-4.7l-8-2.7l-6.3-2l-4-3.8l-0.4-4.6
		l-4.7-1.3v-3.5l-2-2.3l-1.3-3.9l-11.1,0.1l1,1.3l-0.1,1.5c0,0-2.4,1.5-2.7,1.7c-0.4,0.3-2.7,1.7-2.7,1.7s-0.9,1-1,1.4
		c-0.1,0.4-0.7,1.4-0.6,1.7c0.1,0.3,2.3,2.4,2.3,2.4l1.3,1.4c0,0,0.6,1.5-0.3,2.3c-0.9,0.9-2.1,1-2.1,1.4s0.4,3.3,0.4,3.6
		c0,0.3-0.3,1.5-0.7,1.5c-0.4,0-6.7,0.7-6.7,0.7h-4.1l-0.4-2.9l-0.6-2.6c0,0-2.1-0.4-2.6-0.4c-0.4,0-1.3,0.1-2.9,0
		c-1.6-0.1-3.3-2.1-3.3-2.1l-1.2-1.5l-1.2-0.6c0,0-0.1,2.1-1.3,2c-1.2-0.1-6.3,1.4-6.3,1.4L610,457v1.7c-0.3,1-0.6,1.5-0.6,1.5
		l0.7,0.1l2.6,1.5v2.4c0,0.4-1.3,3-1.7,3.5c-0.4,0.4-2.6,0.6-2.6,0.6l-1.7,0.1c0,0-0.6,1.4-0.7,2c-0.1,0.6-0.3,3-1.5,3
		s-5.2,3.9-5.2,3.9l-3.6,1.7c0,0-3.6,1-3.8,1.2c-0.1,0.1-5.2,1-5.2,1l-1.2-0.7l-2-9.7l-3.6-0.9c0,0-3.6-3.2-4.1-2.9l-5.2,2.6
		c0,0-1.4,0.4-1.7,1s-1.7,2.3-1.8,2.6c-0.1,0.1,1.3,14.4,1.3,14.4l-6,2.4l0.4,4.1l-2.6,1v6l-5.5,1.5l-1,3.6l-1.7,1.7l-3,4.3
		c0,0-0.3,1.4-0.3,1.8c0,0.4-1.4,1.2-1.5,1.2c-0.1,0-1.5,0.6-1.5,0.6l-1.5,5.9l-2.3,1.3l-0.1,8.5l1,2.6l-1.4,9.6l-4.9,0.4l-2.3-3.6
		l-1.2-2.9l-1.4-7.6l-0.1-0.9l-9.6,1.8l-3.6,0.7l-1.4,0.6l-0.3,0.9l0.6,2.1l-0.3,0.4c0,0-1.3-0.9-1.7-1c-0.4,0-2.3-1-2.6-0.7
		c-0.3,0.3-0.7,0.1-1,0.6c-0.3,0.4-0.9,0.6-1.2,1.2c-0.3,0.4-0.7,2-0.7,2s0.3,0.7,0.6,1c0.1,0.3,0.4,0.6,0.4,0.6s-0.6,0.1-1.2,0.4
		c-0.6,0.1-1.5,0.6-1.5,0.6s-0.9,0.6-1.2,0.9c-0.3,0.3-3,2.9-3,2.9l-2.1,0.9l-0.7-0.6l-1.4-8.9l-1.2-1.2l-2.9-1.5c0,0-1.5-1-1.8-1.2
		c-0.3-0.2-5.8-1.3-5.8-1.3l-5.9-1l-4-0.9l-4.4-0.6l-4.1-1.2c0,0-2-0.4-2.1-0.4s-4,0.7-4,0.7s-2.7,1.8-3.2,2.1
		c-0.3,0.1-1.7,1.7-1.7,1.7s-1.2,2-1.3,2.3c-0.1,0.3-0.4,1-0.4,1l0.3,1.4l0.7,0.9c0,0-0.3,1-0.9,1.2c-0.6,0.1-3.8,0.4-3.8,0.4
		l-5,0.7l-5.8,0.1l-3.6-0.6l-4.1-3.8c0,0-3.5-1.5-3.8-1.5c-0.3-0.1-2.9-0.9-2.9-0.9l-0.4,2.9l-1.5,5v6.3l0.1,5.8l-1,2.6l-2.4,3.9
		l-1,2.4l-0.7,3.2l1.2,3.6l2.9,4.1l4.3,3.2l3.2,2.6l4.3,3.2l3.3,0.9h2c0,0,0.4,0.6,0.4,1.2s-0.3,1.3,0,1.7c0.3,0.3,1.5,1.3,1.7,1.3
		c0.2,0,2.1,1.3,2.1,1.3l0.6,2l0.7,3.9l0.6,3.6l-0.4,1.2l-3,0.3l-2-0.1l-1.4-4.6l-5.6,0.3l-1.4-3.8L431.8,588.7L431.8,588.7z"/>
	<g>
		<g>
			<g class="st50"> 
				<circle cx="587.2" cy="528.2" r="10.2"/>
				<circle cx="612.5" cy="533.2" r="7.9"/>
				<circle cx="561.3" cy="533.2" r="7.9"/>
				<path d="M553.4,543.2c0,0,3.9,7.8,13.5,2.6c0,0-2.4,6.5-1.5,17h-19C546.3,563.1,544.8,548.7,553.4,543.2z"/>
				<path d="M620.4,543.2c0,0-3.9,7.8-13.5,2.6c0,0,2.4,6.5,1.5,17h19C627.3,563.1,628.9,548.7,620.4,543.2z"/>
				<path d="M576.7,539.7c0,0,8.8,12.6,20.7,0.2c0,0,12,2.8,8.3,29.5h-37.1C568.6,569.1,564.1,546.9,576.7,539.7z"/>
			</g>
			<text transform="matrix(1 0 0 1 555.751 594.1591)" class="st18 st23" id="Consumers_Trichy"></text>
		</g>
		<g class="st50">
			<g>
				<polygon points="716.8,515.4 691.6,536.5 703.1,540.1 695.2,558.6 720.2,538.3 708.8,535.3"/>
				<path d="M684.2,543.2c0.2-2-4.6-24.5,23.1-29.7c0,0-1.3,2-0.5,3.1c1.3,1.3,6.4-2.8,6.2-4.8c-0.2-1.9-4.6-6.1-6.4-4.5
					c-0.7,0.7,0.5,2.6,0.5,2.6s-30.5,1.9-26.4,33.8C680.9,544.7,684.1,546.8,684.2,543.2z"/>
				<path d="M718.2,515.8c1.5,1.3,22.4,11.2,9.4,36.4c0,0-0.9-2.4-2-2.2c-1.9,0.4-1.5,6.7,0.2,7.8c1.7,1.1,7.6,0,7.4-2.2
					c-0.2-0.9-2.4-1.3-2.4-1.3s16.9-25.5-10.9-41.5C718.6,512.3,715.4,513.4,718.2,515.8L718.2,515.8z"/>
				<path d="M720.9,559c-1.7,0.7-18.1,13.5-32.9-7.2c0,0,2.2,0.2,2.6-0.9c0.5-1.7-4.8-4.1-6.4-3.1c-1.5,0.9-3.1,6.2-1.3,6.9
					c0.9,0.4,1.9-1.5,1.9-1.5s13.6,24,37.7,8.3C723.4,561,724,557.8,720.9,559L720.9,559z"/>
			</g>
			<text transform="matrix(1 0 0 1 668.3301 587.3798)" class="st18 st22 st23" id="Consumption_Trichy"></text>
		</g>
		<g>
			<g >
				<path class="st1" d="M602.7,617.7h-12.4c0,0-1.7-0.7,0-4.5c0,0,1.5-3.9,6.1-4.5h40.5c0,0,6.5,0.9,6.7,6.5v38.9h13.3
					c0,0,2.2,6.1-5.3,8.8l-40.8,0.4c0,0-5.9-0.4-7.6-6.9L602.7,617.7L602.7,617.7z"/>
				<path class="st1" d="M656.6,654.2c0,0-29.9,0.5-38.8,0.2c-2.6,0-2,9.6-10.2,7.9"/>
				<path class="st1" d="M597,608.4c0,0,5.7,0.5,5.7,9.6"/>
				<path class="st20" d="M637,620.5h-12.6c-0.2,0-0.5-0.2-0.5-0.5v-0.9c0-0.2,0.2-0.5,0.5-0.5H637c0.2,0,0.5,0.2,0.5,0.5v1.3
					C637.4,620.3,637.2,620.5,637,620.5L637,620.5z"/>
				<path class="st20" d="M637,627.1h-12.6c-0.2,0-0.5-0.2-0.5-0.5v-1.3c0-0.2,0.2-0.5,0.5-0.5H637c0.2,0,0.5,0.2,0.5,0.5v1.3
					C637.4,627,637.2,627.1,637,627.1z"/>
				<path class="st20" d="M637,634.5h-26.6c-0.2,0-0.5-0.2-0.5-0.5v-1.3c0-0.2,0.2-0.5,0.5-0.5H637c0.2,0,0.5,0.2,0.5,0.5v1.3
					C637.4,634.3,637.2,634.5,637,634.5z"/>
				<path class="st20" d="M637,641h-26.6c-0.2,0-0.5-0.2-0.5-0.5v-1.3c0-0.2,0.2-0.5,0.5-0.5H637c0.2,0,0.5,0.2,0.5,0.5v1.3
					C637.4,640.8,637.2,641,637,641z"/>
				<path class="st20" d="M637,648.2h-26.6c-0.2,0-0.5-0.2-0.5-0.5v-1.3c0-0.2,0.2-0.5,0.5-0.5H637c0.2,0,0.5,0.2,0.5,0.5v1.3
					C637.4,648,637.2,648.2,637,648.2z"/>
			</g>
			<text transform="matrix(1 0 0 1 592.4004 686.4589)" class="st18 st22 st23" id="Billed_Trichy"></text>
		</g>
		<g>
			<g class="st50">
				<g>
					<path  d="M765.6,652.5l6.2-8.6c0,0,0.5-1.1-0.4-1.7l-10.5-6.7c0,0-5.7-3.3-14-1.3c0,0-11.7,3.7-19,4.8
						c-2.6,0.4-6.5,0-10.2-0.4c-1.1,0-3.7,1.3-1.9,3.5c0,0,6.7,4.3,21.4,1.1c0,0,4.6-0.9,0.7,1.3c0,0-13.5,3.7-22.4-1.3
						c0,0-16.4-7-19.5-4.3c0,0-2.2,1.3,1.1,2.4c0,0,10.5,3.1,14.3,7c0,0,16.4,9.3,24,9.4c0,0,5.5,1.3,13.3-3.1c0,0,8.5-7.2,14.8-1.7
						C763.3,652.5,764.6,653.5,765.6,652.5L765.6,652.5z"/>
					<path  d="M710.6,638l2,0.9c0,0-0.2-4.8,7.6-3.3c0,0,8.6,0.5,11.1-0.9l10.5-2.9c0,0-1.1-13.6-3.7-16.2
						c0,0-4.6-5.2-7.8-5.9h-8.8c0,0-6.9,3.1-8.5,7.4C713.5,617.3,710.6,621.5,710.6,638L710.6,638z"/>
					<path class="st20" d="M721.5,608.6h9.6l2.9-7.4c0,0,1.1-5-4.6-3.1c0,0-3.3-5-6.9,0.7c0,0-6.7-0.9-4.8,4.3L721.5,608.6z"/>
				</g>
				<path class="st3" d="M727.2,630.6l-6.1-6.9c0,0-0.2-0.2,0-0.4v-1.5c0,0,0.2-0.4,0.4-0.4c0,0,4.6,0.5,5-2h-5c0,0-0.4,0-0.4-0.4
					v-1.3c0,0,0-0.4,0.4-0.4h5c0,0-0.5-1.5-3.9-1.3h-1.1c0,0-0.4,0-0.4-0.4v-1.9c0,0,0-0.4,0.4-0.4h9.9c0,0,0.4,0,0.4,0.4v1.3
					c0,0,0,0.2-0.4,0.4h-2.9c0,0,0.7,1.1,0.9,1.7h2c0,0,0.4,0,0.4,0.4v1.3c0,0,0,0.2-0.4,0.4h-2c0,0-0.2,3.5-4.8,4.1l5.3,6.4
					c0,0,0.4,0.4,0.2,0.5c0,0,0,0.4-0.4,0.4L727.2,630.6C727.3,630.6,727.3,630.6,727.2,630.6L727.2,630.6z"/>
			</g>
			<text transform="matrix(1 0 0 1 703.96 676.2899)" class="st18 st22 st23" id="Revenue_Trichy"></text>
		</g>
		<text transform="matrix(1 0 0 1 606.5947 502.0902)" class="st21 st22 st23">TRICHY</text>
	</g>
</g>

<!--Villupuram-->
<g class="svgmap">
	<path class="st27" d="M800.9,514.2v-11.4l6.3-1l5.3-1.4l1.4-4h8.2l1.4-2.6l1.3-9.9l6.7-1.8l6.7-2.6V478l2.3-6.2h12.6l5-3.6h1.4
		v-6.2l-2.7-6.3l-8.6-5l-1-11.4l-2.1-2.3l0.4-28.4l3-1.7l-0.6-8.6l5-0.9l0.1-11.2h-12.6l-0.6-5.9h-6.3l0.4-8.2h7.1l4.1-5l0.6-2.7
		l-10.9,1.3l-0.9-6.2h-8.5l-0.6-5.8H821v3l-9.7,0.4l0.1-23.4h4.4l1.7,1l3.8,0.6l1,2.7l5.9,0.1l1.8-5.9l4.6,1v4.6l2.1,0.9v2.6
		c0,0,1.8,0.9,2.1,1.4c0.1,0.6,1.8,3,1.8,3s2.3,0.3,3.2,0c0.9-0.3,4.9-1.7,4.9-1.7l3.5-2.1l4.6,1h2.7l2.1-2.6l-4-5l0.6-8.6l11.4-0.9
		v-6.7l6.2-2.6l1.4-1.4l1-8.5l6.7-1l1.8-3.5l-2.6-3.5l-0.6-1.4l3.2-3l3.5-2.6l1.8-1.7h-4c0,0-3,0.4-3.5,0.4c-0.3,0-2.7-0.9-2.7-0.9
		l-0.7-0.6l-0.7-4.1l-0.7,0.6l-0.7,4.4l-1.8,1.4l-1.4,0.4l-1.5-0.4l-1.2,1.8l-0.7,0.6l-2-0.7l-0.9-1.8c0,0-2.6-0.4-2.9-0.4
		c-0.1,0-2-0.3-2-0.3l-0.6-4.9l-1.8-1.5l-0.4-6.3h-8.2l-0.7-3.9l-3-2.7c0,0-2.7-0.7-3.6,2.7l-0.4,4.3c0,0-1.5,1.7-2,2l-2.3,0.7
		l-5-0.7l-2.1-2.4l-6.2-1.5l-1.7-2.3l-0.9-2.3v-6.5l-2-2.7l0.4-2.7l4-0.7l2.1-0.7l4.1-2.4l6.3-4.4l2.1-2.3l0.3-0.9l-0.7-4.1l0.1-7
		l3.2-2.4l-0.6-5.3l-5.5-0.3c0,0-1.8-5.6-2.6-5.8l0.3-3.9l-2.4-0.7h-3.3l-4.7-0.3l-1.5-4.7l-4.3-1l-0.9-4.9l-2.4-3l0.3-1.7l7.4,0.1
		l2,1.4l1.7,0.7l4.6-0.6l1.4-4.4l6.3-2.1l0.3-15.5l-7.1-0.6l-4-2l-1.3,1.4c0,0-4.1,1.3-6,0.3l-0.9-4.6l-4.1-0.7l-1.7-8l-10.5-0.1
		l-2.6-1.7h-6.8l-6.8-1.4l-0.7-3.6l-3.2,4.7l-3.2,1.4l0.1,3.2c0,0-2.9,1.7,1.2,2.1h2.7c0,0,0.4,0.9,0.3,1.7l-0.7,3.2
		c0,0-4,0.7-4.6,3.2l-0.3,7.1l4.7,2.3l1.4,1l0.1,2.6v0.9l-2.9,1.4l-1,1.3l-1,1.8l-2,3.9l-4,2l-3,1.3l-0.3,1.2l-0.1,1.8l-1.3,1.4
		l-11.5-0.6l-0.4-7.1l2-2.1l3.2-1.7l1.4-2l2-1.2l3-1.2l-3.9-7.1l-1.7,2.3l-1.7,1.5l-2,0.4l-1.7,0.1l-0.7,1l-0.7,1.8l-0.7-3l-4.6-3.6
		l-3.9-3.9l-1.8-2.4l-2.6-2.3l-2-2l-2-2.4l-0.7-1l-4,2.3c0,0-1.3,0.1-1.5,0.1s-1.8,1.5-1.8,1.5l-4.7,4l0.4,3.2l-0.3,0.7l-6.5,0.7
		l-4.3,0.1l-8.3-0.4l-9.1-0.4l-2.9,6.2l-1.4,2.7l-1,1.8l-1.3,1.3c0,0-1.2,0-1.3,0.3c0,0.3-1.2,0.4-1.2,0.4s-0.4,0.1-0.6,0.3
		c-0.1,0.1-0.7,0.6-0.7,0.6l-1.4-3.2l-0.9-0.3l-2.7,0.4l-2.7,0.9l-0.9,0.4l-1.2,0.6l-1.9,0.8l-4.9,0.6l-2.6-1l-2.3-1.2L666,198
		l-1.2,2.7l-0.7,3l-0.7,2.7l-2.6,2.4l-1.4,1.3l-1.7,3.3l-1.3,2.1l-1.3,2l-0.4,1.7v1.5l-0.7,2l-2.4,2.4l-1.2,1l-1,1l-1,1.3l-0.6,0.7
		l-1,0.4l-1.2,3.3l-0.7,2.4l-1.5,0.9l-5.9,5.4l-0.9,2l0.6,1.4l1.5,2.1l0.4,1.3l-1.2,1l-3.5,1.4l-1.3,1l-0.4,3v3.9l-0.1,2.1l-1.3,1.4
		l-2.3,0.9l-0.3,2.9l-0.3,2.1c0,0-1,1.2-1.2,1.4c-0.1,0.1-0.3,0.6-0.4,0.9c-0.1,0.3-0.4,2.6-0.4,2.6l-0.3,1.7l-0.7,2l-1,2.9
		l-1.2,1.2l-2.1,0.4l-2.7,0.6l-2.7,0.9l-1.5,1.3c0,0-1,1-1,1.2c0,0.1-1.5,2.6-1.5,2.6l-0.3,3.3l1.3,2.7c0,0,1.2,2.6,1.2,2.7
		c0,0.1,0.3,1.7,0.3,1.7l-3.6,0.6l-1.8,1l-1.2,1.4l-0.4,2.4l-0.1,2.6l0.9,2.6l1,2.4l0.6,0.4c0,0,1.3-0.4,1.5,0.6l1.2,4.6l0.4,1.7
		l2.4,0.1l3.6-0.9l1.4-0.9l2.6,4.9l-1.7,2l-0.7,11.9l-2.3,2.6l0.4,2.3c0,0,2,1.5,1.7,2.1c0,0-1.2,1.7-2.4,2.9c0,0-0.7,2.1,0,3.3
		l0.4,2.7l1.8,4.3l0.3,2.7l-0.7,0.6c0,0-3,0.4-3.6,0.4l-6.2-0.1c0,0-3.6,0.4-3.6,1.3l0.6,5.2l4.6-0.4l1.4,3.9l1,2.1l-0.3,1.5l-1,1.7
		l-1,2.6l-7.1,0.7l0.4,7.1l-4.1,1.7l0.4,3.5l4,2.6l-0.6,8.6v4l0.4,2.1l3.5,2.3l0.6,1l1,4.6l4.1,2l3.5-5.3l4.6-3.5l6.5-4.4
		c0,0,6.5,0.3,6.2,1.3l-2.9,6.2c0,0-0.9,3.2-0.3,3.6c0,0,1.2,5,1.2,5.6l0.3,2l2.1,1.2l6.5,2.4l0.7,1.2l2.6,5.5l1.7,2.7l1,1.8
		L648,439l0.3,0.7l1.2,0.1l1,0.3h3l2.7-0.1h3l0.9,2.7l1.3,2.3l1,1.5v2.7l4.7,1.5l0.4,4.6l3.8,3.5l14.7,5.2l1.5,4.6l4,0.6l0.1-4.4
		l13.6-1.2l5.9,2.4l10.3,0.9l0.7,4.9l7.4-1l3-4.6l3.2,5.2l13.3-1.2l1.4-4.1l3.8-4.6l1.7,4l9.7,0.7l0.6,6.5l-0.3,3l0.3,0.7h3.3
		l4.4,0.6l1.4,1.5l1.4,1.2c0,0,1.3,0.4,1.4,0.6c0.1,0.1,1.4,1,1.8,1.2c0.4,0.1,3,0.6,3,0.6l1.7,0.3l0.7,0.7l0.6,9.1l12.9,0.9
		l-1.5,2.9l-2,2.3l-2.3,3.2l-2.4,3.9l-1.7,3.3v3.2c0,0,1.5,1.2,1.8,1.2c0.1,0,3.6,1,3.6,1h6.6L800.9,514.2L800.9,514.2L800.9,514.2z
		"/>
	<g>
		<g>
			<g class="st50">
				<circle cx="672.7" cy="264.6" r="10.2"/>
				<circle cx="698" cy="269.7" r="7.9"/>
				<circle cx="646.8" cy="269.7" r="7.9"/>
				<path d="M638.9,279.7c0,0,3.9,7.8,13.5,2.6c0,0-2.4,6.5-1.5,17h-19C631.9,299.5,630.4,285.2,638.9,279.7L638.9,279.7z"/>
				<path d="M705.9,279.7c0,0-3.9,7.8-13.5,2.6c0,0,2.4,6.5,1.5,17h19C712.9,299.5,714.4,285.2,705.9,279.7L705.9,279.7z"/>
				<path d="M662.2,276.1c0,0,8.8,12.6,20.7,0.2c0,0,12,2.8,8.3,29.5h-37.1C654.1,305.6,649.6,283.3,662.2,276.1L662.2,276.1z"/>
			</g>
			<text transform="matrix(1 0 0 1 641.3096 330.597)" class="st18 st23" id="Consumers_Villupuram"></text>
		</g>
		<g class="st50">
			<g>
				<polygon points="788.6,257.5 763.4,278.6 774.9,282.2 767,300.6 792,280.4 780.6,277.3"/>
				<path d="M755.9,285.2c0.2-2-4.6-24.5,23.1-29.7c0,0-1.3,2-0.5,3.1c1.3,1.3,6.4-2.8,6.2-4.8c-0.2-1.9-4.6-6.1-6.4-4.5
					c-0.7,0.7,0.5,2.6,0.5,2.6s-30.5,1.9-26.4,33.8C752.7,286.8,755.9,288.9,755.9,285.2z"/>
				<path d="M789.9,257.9c1.5,1.3,22.4,11.2,9.4,36.4c0,0-0.9-2.4-2-2.2c-1.9,0.4-1.5,6.7,0.2,7.8s7.6,0,7.4-2.2
					c-0.2-0.9-2.4-1.3-2.4-1.3s16.9-25.5-10.9-41.5C790.4,254.4,787.1,255.5,789.9,257.9L789.9,257.9z"/>
				<path d="M792.7,301.1c-1.7,0.7-18.1,13.5-32.9-7.2c0,0,2.2,0.2,2.6-0.9c0.5-1.7-4.8-4.1-6.4-3.1c-1.5,0.9-3.1,6.2-1.3,6.9
					c0.9,0.4,1.9-1.5,1.9-1.5s13.6,24,37.7,8.3C795.2,303.1,795.8,299.9,792.7,301.1L792.7,301.1z"/>
			</g>
			<text transform="matrix(1 0 0 1 740.1182 329.4706)" class="st18 st23" id="Consumption_Villupuram"></text>
		</g>
		<g>
			<g>
				<path class="st1" d="M669.3,363.5h-12.4c0,0-1.7-0.7,0-4.5c0,0,1.5-3.9,6.1-4.5h40.5c0,0,6.5,0.9,6.7,6.5v38.9h13.3
					c0,0,2.2,6.1-5.3,8.8l-40.8,0.4c0,0-5.9-0.4-7.6-6.9L669.3,363.5L669.3,363.5z"/>
				<path class="st1" d="M723.2,400c0,0-29.9,0.5-38.8,0.2c-2.6,0-2,9.6-10.2,7.9"/>
				<path class="st1" d="M663.6,354.1c0,0,5.7,0.5,5.7,9.6"/>
				<path class="st20" d="M703.6,366.3H691c-0.2,0-0.5-0.2-0.5-0.5v-0.9c0-0.2,0.2-0.5,0.5-0.5h12.6c0.2,0,0.5,0.2,0.5,0.5v1.3
					C704,366.1,703.8,366.3,703.6,366.3z"/>
				<path class="st20" d="M703.6,372.9H691c-0.2,0-0.5-0.2-0.5-0.5v-1.3c0-0.2,0.2-0.5,0.5-0.5h12.6c0.2,0,0.5,0.2,0.5,0.5v1.3
					C704,372.8,703.8,372.9,703.6,372.9z"/>
				<path class="st20" d="M703.6,380.2H677c-0.2,0-0.5-0.2-0.5-0.5v-1.3c0-0.2,0.2-0.5,0.5-0.5h26.6c0.2,0,0.5,0.2,0.5,0.5v1.3
					C704,380,703.8,380.2,703.6,380.2z"/>
				<path class="st20" d="M703.6,386.8H677c-0.2,0-0.5-0.2-0.5-0.5v-1.3c0-0.2,0.2-0.5,0.5-0.5h26.6c0.2,0,0.5,0.2,0.5,0.5v1.3
					C704,386.6,703.8,386.8,703.6,386.8z"/>
				<path class="st20" d="M703.6,394H677c-0.2,0-0.5-0.2-0.5-0.5v-1.3c0-0.2,0.2-0.5,0.5-0.5h26.6c0.2,0,0.5,0.2,0.5,0.5v1.3
					C704,393.8,703.8,394,703.6,394z"/>
			</g>
			<text transform="matrix(1 0 0 1 659.0283 432.2372)" class="st18 st23" id="Billed_Villupuram"></text>
		</g>
		<g>
			<g class="st50">
				<g>
					<path d="M820.7,406.6l6.2-8.6c0,0,0.5-1.1-0.4-1.7l-10.5-6.7c0,0-5.7-3.3-14-1.3c0,0-11.7,3.7-19,4.8
						c-2.6,0.4-6.5,0-10.2-0.4c-1.1,0-3.7,1.3-1.9,3.5c0,0,6.7,4.3,21.4,1.1c0,0,4.6-0.9,0.7,1.3c0,0-13.5,3.7-22.4-1.3
						c0,0-16.4-7-19.5-4.3c0,0-2.2,1.3,1.1,2.4c0,0,10.5,3.1,14.3,7c0,0,16.4,9.3,24,9.4c0,0,5.5,1.3,13.3-3.1c0,0,8.5-7.2,14.8-1.7
						C818.4,406.6,819.6,407.7,820.7,406.6L820.7,406.6z"/>
					<path class="st20" d="M765.7,392.2l2,0.9c0,0-0.2-4.8,7.6-3.3c0,0,8.6,0.5,11.1-0.9l10.5-2.9c0,0-1.1-13.6-3.7-16.2
						c0,0-4.6-5.2-7.8-5.9h-8.8c0,0-6.9,3.1-8.5,7.4C768.6,371.5,765.7,375.6,765.7,392.2L765.7,392.2z"/>
					<path class="st20" d="M776.6,362.7h9.6l2.9-7.4c0,0,1.1-5-4.6-3.1c0,0-3.3-5-6.9,0.7c0,0-6.7-0.9-4.8,4.3L776.6,362.7z"/>
				</g>
				<path class="st3" d="M782.3,384.7l-6.1-6.9c0,0-0.2-0.2,0-0.4v-1.5c0,0,0.2-0.4,0.4-0.4c0,0,4.6,0.5,5-2h-5c0,0-0.4,0-0.4-0.4
					v-1.3c0,0,0-0.4,0.4-0.4h5c0,0-0.5-1.5-3.9-1.3h-1.1c0,0-0.4,0-0.4-0.4v-1.9c0,0,0-0.4,0.4-0.4h9.9c0,0,0.4,0,0.4,0.4v1.3
					c0,0,0,0.2-0.4,0.4h-2.9c0,0,0.7,1.1,0.9,1.7h2c0,0,0.4,0,0.4,0.4v1.3c0,0,0,0.2-0.4,0.4h-2c0,0-0.2,3.5-4.8,4.1l5.3,6.4
					c0,0,0.4,0.4,0.2,0.5c0,0,0,0.4-0.4,0.4L782.3,384.7C782.3,384.7,782.3,384.7,782.3,384.7L782.3,384.7z"/>
			</g>
			<text transform="matrix(1 0 0 1 759.0312 430.4271)" class="st18 st23" id="Revenue_Villupuram"></text>
		</g>
		<text transform="matrix(1 0 0 1 662.6582 240.493)" class="st22 st23">VILLU PURAM</text>
	</g>
</g>

<!--Vellore-->	
<g class="svgmap3">
	<path class="st28" d="M399.9,348.4l0.3-8.3l3.3-1l0.4-3.8l2.9-2.6l3.2-3.5l1.3-1.4l0.4-3.5l2-1.3l1.8-1.8l1.8-1.2v-1.8l-1.8-3.5
		l-0.7-5l-2.3-1.2l-2.7-1.7l-0.9-2.7l-5.2-1.2l-0.9-2.7l-26.4-0.9l-0.4-4.7l-6.3,0.6v3.9l-12.6,0.1v-15.1l2.4-2.3l1.5-1.2h6l0.3-2.9
		l3.8-0.9h2l0.6-6.5l3.5-1.3l4.4-1.5l1-1l1.7-1.8l1.5-1.7l0.6-6.5l3.3-1.3l-0.1-14.2l-4.7-1.2l-1-4l-3-2.3l-2.1-2.3l0.1-16.9
		l4.7-0.3l0.1-12.3l4.7-0.7l1.2-1.8l6.5-0.6l1.7,3.5l10.9-0.3l0.9-3.2h5l3-1.8l1.5-2.7l-1.7-3.8l-0.7-1.3l1-1.4l4-1.4
		c-0.6-1.3-1.7-2.7-1.7-2.7l0.3-6.3h4.6l1.2-10l1.4-1.8l2-1h11.9v-4.7h7.4v13.3l21.1-0.6l2-3.2V162l7,0.3v2.6l8.9,0.9v4.1l4.3,2.3
		l2.9,2.3l2.4,1.4l3.3,2.7l8,0.6v2.4l6.2,2.4l2.6,3.5c0,0,1.8,1.3,1.8,2.3c0,1.1,1.3,4.3,1.3,4.3v1.4l7.7,0.7l3.9,0.6l1.2,4.3
		l3.5,2.9c0,0,4.1-0.3,5.6,0.3c1.4,0.6,2.7,0.9,4.1,1.8c1.5,1,7.1,2.4,7.1,2.4l13.3,1l0.9-4.4l3-0.4l2-2.3c0,0,1.7-1.3,1.8-1.7
		c0.1-0.4,0-4.4,0-4.4v-3.5l2.3-1.3c0,0,2.7-0.6,2.7,1s1.4,4,1.4,4h2.7l1.7-1.8c0,0,1.3-1.7,1.7-2.3c0.4-0.6,2.3-3.3,2.4-3.6
		s1-4.4,1-4.4l1.7-4l6.3-2.1v-16.2l1.2-2.7l2.6-4.9l0.7-3.3l0.7-3.5l1-3.5c0,0,0.4-1.4,0-1.8c-0.4-0.4-2.4-1.7-2.4-1.7v-1.4l1.7-3.6
		c0,0,1.8-0.9,2.3-1c0.4-0.1,2.7-1.3,2.7-1.3h4.3l1-4.3l3.2-6h7l1.3,2l3.3,0.7l1,2.6l2-4l3.5-2.7l4.3-1.2h5.3l1.7,3l10-1l2.3-2.7
		c0,0,11.1-6.3,11.2-7.6v5.8l1.5,2.1l6-2l24.7,0.1l14.6-2.7h26l13.3-8l4.6-3.5h9.5l4-4.6l6.8-3.8h8.9l3.2-5.9l18.5,2.7l6.2,5.3
		l18.8-5.3l10.6-7.3l5.9-8.5l5-6.5l9.1-3.9l10.3-4.4l7.9-2.9l1.4-4.1l-3.2-2.9l-0.3-2l0.7-2.3h4.3l3.3-0.9v-7.3h3.5l0.7,3.9l2.1-4.7
		l3.2-2.1v-3.8l2.3-1.4l-3.3-2.9h-3l-0.3-6.5h9.1l1.2,5.5v2.7l4.7,1.4l0.9,6.2l11.7-1v-6.3h6.5l1.3,7.7l16.1,0.1l3.8,1.8l2.1,3
		l5,1.7l8.9,0.6v4l1.7,6.2l-1.4,5.5l-0.6,5l-0.4,10.3l-1.8,0.6l-4.1,1.8c0,0-1.7,0.4-2.3,1c-0.6,0.6-2.3,1-2.3,1l-2.3,0.6l-1.7,3.6
		c0,0-1,1.7-2.1,2.6s-2.3,3.6-2.3,3.6V93c0,1-0.4,4.1-0.4,4.1l-3.2,1.8c0,0-1.4,0.6-2.1,0.9c-0.6,0.1-3.7,1.5-3.7,1.5
		s-0.3-0.4-2-0.5c-1.7,0.6-4.4,0.6-5.3,1.3c-0.9,0.6-3,1.4-4.1,2.1c-1.3,0.6-3,1.7-3,1.7l-4.6,4.9l-2.7,3l-2.6,3.2l-4,5.3l-2.7,2.7
		l-1.3,4l3.2,5.5l1.7,9.1c0,0,1,4.9,2.1,5.9s1.8,1.8,2.3,3.2c0.4,1.3,3,2.6,3,2.6s1.4,1.7,3,1.7s3.2-0.6,5-0.1
		c1.8,0.4,7.1,2.1,7.1,2.1l7.3,0.4l3.6-0.1l4.6-5.3l1.8-1.3l-0.4,24.1l-3,4.1c0,0-1.8,1-1.8,2.3c0,1.3,2.1,4.9,2.1,4.9l-4.4,1.4
		c0,0-1.7,1.8-1.7,3s0.6,3.6,0.6,3.6s2.1-1,2.3,1.3c0.1,2.3,2.3,3.6-0.1,4c-2.6,0.4-4.6,0.9-4.6,0.9s-0.4,3.2-0.6,4.6
		c-0.2,1.4-2.1,2.6-2.1,4.4s-0.4,2.6-0.9,3.5c-0.4,0.9-1.3,1.3-1.8,3.2c-0.6,1.8-1.4,8.2-1.4,8.2v3c0,0-1.3,1.8-1.4,3
		c-0.1,1,2.1,3.6-0.6,3.8c-2.7,0.1-5.8-0.1-5.8-0.1s-1.8-0.1-1.3,0.9c0.6,1,5.3,4.1,5.3,4.1s-1.4,2.7-2.7,4c-1.3,1.3-3,2.7-3,2.7
		s0,2.1-1,3c-1,0.9-0.1,1.7-2.3,2.6l-2.1,0.9l-0.6,10.2h-5.7l-2.3,6.7l-2.1,3.5l-3.8,0.4c0,0-1.4,3-1.8,3.8
		c-0.4,0.9-2.6,2.3-2.6,2.3s-1.3-0.4-2.3,1.7c-1,2.1-3,3.6-3.6,5.3c-0.6,1.7,0,1.8-2.6,1.8c-2.6,0-5.3,0-6.3,0.4
		c-1,0.4-4.9-0.6-4.9-0.6v-5l-1.2,0.4l-0.7,5.2l-2,1.2h-2.7c0,0-0.7,0.7-0.7,0.9c0,0.1-0.6,1.4-0.9,1.5c-0.3,0-1.4-0.1-1.8-0.1
		c-0.4,0-1.3-2.7-1.3-2.7h-1.8c-0.9,0-2-0.3-2.3-0.3s-0.6,0.1-0.7-0.3c0-0.4-0.6-4.9-0.6-4.9l-1.8-1.4l-0.4-6.3h-8.3l-0.6-4.1
		l-3-2.4c0,0-2.1,0.7-2.3,0.7h-0.1c0,0-1.2,1-1.2,1.8c0,0.9-0.4,4.7-0.4,4.7l-1.4,1.3c0,0-2.3,1-3.6,1s-4.9-1-4.9-1l-1.5-2.3
		c0,0-3.9-0.9-4.4-0.9s-2.9-1.4-2.9-1.4s-1.4-3.5-1.4-3.9v-6.5l-1.8-3c0,0,0.3-2.6,0.4-2.7c0.1-0.1,5.2-0.9,5.2-0.9l10-6l2.9-3.9
		l-0.3-3.9l0.1-7.9l3.1-2.2l-0.5-5.1l-5.6-0.4l-1-3.2l-1.7-2.7l0.1-2.9l0.3-0.9c0,0-0.9-1.2-1.5-0.9c-0.7,0.1-8.7,0-8.7,0l-1.5-4.7
		l-4.4-1l-0.7-5.5l-2.4-2.4l0.3-2l8.1,0.3l2,1.4c0,0,1.5,0.9,2.3,0.9c0.7,0,3.9-0.7,3.9-0.7s0.9-2.1,0.9-2.4c0-0.3,0.6-1.8,0.9-2.3
		c0.3-0.3,5.8-1.7,6.2-1.8c0.3-0.1,0.3-15.5,0.3-15.5l-7.1-0.6l-4-2c0,0-0.9,1.3-1.4,1.4c-0.4,0.1-2.6,0.7-3.5,0.7
		c-0.9,0-2.4-0.4-2.4-0.4l-0.9-4.9l-4.4-0.4l-1.4-8l-10.5-0.1l-2.6-1.7H796l-6.7-1.4l-0.4-3.6l-3.5,5.3l-3,1l0.1,3.2
		c0,0-2.1,1.7,0.4,2.1c2.6,0.4,3.6-0.1,3.8,0.4c0.1,0.6-0.9,4.9-0.9,4.9s-2.3,0.4-3,0.9c-0.6,0.4-1.7,1.4-1.7,2.3
		c0,0.9-0.1,6.7-0.1,6.7l3.6,1.4l2.6,1.8l0.1,3.5l-3.5,1.7l-1.8,3.6l-2.1,4l-5.3,1.8c0,0-1.7,0.6-1.7,1.3c0,0.6-0.1,2.6-0.1,2.6
		l-1.3,1.4l-11.7-0.6v-7.6l5.5-3.8l1.3-2.1l4.9-1.8l-2.3-3.8l-1.7-3c0,0-2.3,3.2-3.2,3.6s-4.1,0.6-4.1,0.6l-0.4,1.3l-1,1.4l-0.6-3.8
		l-4-2.7l-3-2.6l-4-5.3l-1.7-1.4l-2.7-2.1l-2.1-3c0,0-1.8,1.4-3.6,2.1c-1.7,0.6-2.3-0.1-3.6,1.4c-1.3,1.7-5,4.4-5,4.4s0.9,4,0.1,3.8
		c-0.6-0.1-7.6,1-9.7,0.9c-2.1-0.1-18.9-0.9-18.9-0.9l-1.4,4.1l-1.4,2.7c0,0-0.6,0.9-1.3,2.6c-0.6,1.7-2.3,3.2-3.6,3.2s-2.1,1-2.1,1
		s-1.3-3.6-1.8-3.6s-4.1,0.6-4.9,0.9c-0.6,0.1-3.6,1.8-3.6,1.8s-5,0.6-5.8,0.6c-0.7,0-4.9-2.1-4.9-2.1l-3.6-0.4l-1.3,3.8
		c0,0-0.6,4.6-1.3,5c-0.6,0.4-0.4,0.6-1.7,1.4c-1.3,0.9-2.6,2.3-2.6,2.3l-1.4,3.2l-1.7,2.6c0,0-1.3,1.7-1.3,2.6s0.6,2.7-1,4.6
		c-1.7,1.8-3.8,3.6-3.8,3.6l-1.8,2.6c0,0-1-0.1-1.4,1.4c-0.4,1.7-1.4,5-1.4,5l-2.3,1l-2.7,2.7l-2.6,1.6l-0.6,2.1
		c0,0,1.3,1.7,1.7,2.3c0.4,0.6,1.7,1.7,0.9,2.6c-0.9,0.9-0.4,0.1-1.8,1c-1.4,0.9-3.2,0.9-3.6,1.4c-0.4,0.6-0.6,2.7-0.6,5.3
		c0,2.6,0,4.6-0.6,5.3c-0.6,0.6-3.5,0.9-3.5,1.7s0,3.6-0.4,4.6c-0.4,1-1.3,0.9-1.7,2.7c-0.4,1.8-0.4,4.6-1,5.3
		c-0.6,0.6-1.3,4.4-2.3,4.4c-1,0-7.3,1.4-7.3,1.4s-3.2,2.1-3.2,3s-1.8,2.1-1.8,3.5c0,1.3-0.1,3,0.9,4.4c1,1.4,2.6,3.8,2.1,4.9
		c-0.4,1.2-4.4,0.4-4.9,1c-0.4,0.6-1.8,1-1.8,2.6c0,1.4-0.9,2.7-0.4,4.4c0.4,1.7,1.4,4.9,2.1,5.5c0.6,0.6,1.4-1.8,2.3,2.1
		c0.9,4,1.3,5,1.3,5h4.1l3.2-1.7l2.6,4.9l-1.8,2.1l-0.6,12.1l-2.3,2.1l0.4,2.3c0,0,2.1,1.3,1.7,2.3c-0.4,1-3,2.7-3,3.6
		s0.6,2.3,0.6,3.6s1,3.6,1.7,4.3c0.6,0.6,0.9,4.4,0.9,4.4s-1.4,0.9-3.2,0.9h-7.7c0,0-3.2,0.1-3.2,1c0,0.9,0.4,4.1,0.4,4.1v0.9
		l-3.5,2.4l-1.2,1.2l-0.9,2l-1.5,3.2l-1,1.2l-3.3,0.3l-2,0.7c0,0-0.4,0.9-0.6,1.3c-0.1,0.4-0.9,1.8-0.9,2c-0.1,0.1-6,0.3-6,0.3
		l-8.3,0.3h-3.6l-4.1-0.9l-3.8-1.4l-3.6-4.1l-3-4.4l-0.9-2l-3,2.1l-0.7,2.1l-1.2,3.3l-5.9,0.9l-1.2,5.8l-0.3,2.3l-0.9,1.4l-1.7,0.7
		l-2.4,0.6l-1.7,1.2c0,0-1.3,0.4-1.5,0.4c-0.3,0-1.7-0.1-1.7-0.1l-0.3-3.8l-2.6-1.3l-0.4-1.4l0.6-2.1l4.3-1.5c0,0,1.7-1.4,1.8-1.7
		c0.1-0.3,2.7-8,2.7-8l2.6-1.7l-1.4-6.3l-5.8,0.9l-3.5-3.5l-9.4-3.2v7.1l-1.3,1.4l-7.4-1.7l-0.3-8.2l3.2-2.7v-3.9l-8.3,0.7l-3.6,2.1
		l-10.6,0.7l-2.9,1.5h-5.8l-7.3,3.9l-1.4,4l-22.6,0.6l-1.2,2.9l-10.5,0.4v-3.3l-19.9,0.4l-1.7-2l-4.1-0.4l-1.2-3.5l-16.5-0.7
		L399.9,348.4L399.9,348.4z"/>
	<g>
		<g>
			<g class="st50">
				<circle cx="459.8" cy="233.6" r="10.2"/>
				<circle cx="485.1" cy="238.6" r="7.9"/>
				<circle cx="433.9" cy="238.6" r="7.9"/>
				<path d="M426,248.6c0,0,3.9,7.8,13.5,2.6c0,0-2.4,6.5-1.5,17h-19C418.9,268.4,417.4,254.1,426,248.6L426,248.6z"/>
				<path d="M493,248.6c0,0-3.9,7.8-13.5,2.6c0,0,2.4,6.5,1.5,17h19C499.9,268.4,501.5,254.1,493,248.6L493,248.6z"/>
				<path d="M449.3,245c0,0,8.8,12.6,20.7,0.2c0,0,12,2.8,8.3,29.5h-37.1C441.2,274.5,436.7,252.3,449.3,245L449.3,245z"/>
			</g>
			<text transform="matrix(1 0 0 1 428.3608 299.5414)" class="st18 st23" id="Consumers_Vellore"></text>
		</g>
		<g class="st50">
			<g>
				<polygon points="568.1,230 542.8,251.1 554.4,254.6 546.5,273.1 571.4,252.9 560.1,249.8 				"/>
				<path d="M535.4,257.7c0.2-2-4.6-24.5,23.1-29.7c0,0-1.3,2-0.5,3.1c1.3,1.3,6.4-2.8,6.2-4.8c-0.2-1.9-4.6-6.1-6.4-4.5
					c-0.7,0.7,0.5,2.6,0.5,2.6s-30.5,1.9-26.4,33.8C532.1,259.2,535.3,261.4,535.4,257.7L535.4,257.7z"/>
				<path d="M569.4,230.4c1.5,1.3,22.4,11.2,9.4,36.4c0,0-0.9-2.4-2-2.2c-1.9,0.4-1.5,6.7,0.2,7.8s7.6,0,7.4-2.2
					c-0.2-0.9-2.4-1.3-2.4-1.3s16.9-25.5-10.9-41.5C569.9,226.9,566.6,227.9,569.4,230.4L569.4,230.4z"/>
				<path d="M572.2,273.6c-1.7,0.7-18.1,13.5-32.9-7.2c0,0,2.2,0.2,2.6-0.9c0.5-1.7-4.8-4.1-6.4-3.1c-1.5,0.9-3.1,6.2-1.3,6.9
					c0.9,0.4,1.9-1.5,1.9-1.5s13.6,24,37.7,8.3C574.7,275.5,575.3,272.3,572.2,273.6L572.2,273.6z"/>
			</g>
			<text transform="matrix(1 0 0 1 519.582 301.9393)" class="st18 st23" id="Consumption_Vellore"></text>
		</g>
		<g>
			<g>
				<path class="st1" d="M846.3,104.8h-12.4c0,0-1.7-0.7,0-4.5c0,0,1.5-3.9,6.1-4.5h40.5c0,0,6.5,0.9,6.7,6.5v38.9h13.3
					c0,0,2.2,6.1-5.3,8.8l-40.8,0.4c0,0-5.9-0.4-7.6-6.9L846.3,104.8L846.3,104.8z"/>
				<path class="st1" d="M900.3,141.3c0,0-29.9,0.5-38.8,0.2c-2.6,0-2,9.6-10.2,7.9"/>
				<path class="st1" d="M840.7,95.5c0,0,5.7,0.5,5.7,9.6"/>
				<path class="st20" d="M880.6,107.6H868c-0.2,0-0.5-0.2-0.5-0.5v-0.9c0-0.2,0.2-0.5,0.5-0.5h12.6c0.2,0,0.5,0.2,0.5,0.5v1.3
					C881,107.4,880.8,107.6,880.6,107.6z"/>
				<path class="st20" d="M880.6,114.3H868c-0.2,0-0.5-0.2-0.5-0.5v-1.3c0-0.2,0.2-0.5,0.5-0.5h12.6c0.2,0,0.5,0.2,0.5,0.5v1.3
					C881,114.2,880.8,114.3,880.6,114.3z"/>
				<path class="st20" d="M880.6,121.6H854c-0.2,0-0.5-0.2-0.5-0.5v-1.3c0-0.2,0.2-0.5,0.5-0.5h26.6c0.2,0,0.5,0.2,0.5,0.5v1.3
					C881,121.4,880.8,121.6,880.6,121.6z"/>
				<path class="st20" d="M880.6,128.1H854c-0.2,0-0.5-0.2-0.5-0.5v-1.3c0-0.2,0.2-0.5,0.5-0.5h26.6c0.2,0,0.5,0.2,0.5,0.5v1.3
					C881,127.9,880.8,128.1,880.6,128.1z"/>
				<path class="st20" d="M880.6,135.4H854c-0.2,0-0.5-0.2-0.5-0.5v-1.3c0-0.2,0.2-0.5,0.5-0.5h26.6c0.2,0,0.5,0.2,0.5,0.5v1.3
					C881,135.2,880.8,135.4,880.6,135.4z"/>
			</g>
			<text transform="matrix(1 0 0 1 836.0488 173.5868)" class="st18 st23" id="Billed_Vellore"></text>
		</g>
		<g class="st50">
			<g>
				<g>
					<path d="M914.9,231.8l6.2-8.6c0,0,0.5-1.1-0.4-1.7l-10.5-6.7c0,0-5.7-3.3-14-1.3c0,0-11.7,3.7-19,4.8
						c-2.6,0.4-6.5,0-10.2-0.4c-1.1,0-3.7,1.3-1.9,3.5c0,0,6.7,4.3,21.4,1.1c0,0,4.6-0.9,0.7,1.3c0,0-13.5,3.7-22.4-1.3
						c0,0-16.4-7-19.5-4.3c0,0-2.2,1.3,1.1,2.4c0,0,10.5,3.1,14.3,7c0,0,16.4,9.3,24,9.4c0,0,5.5,1.3,13.3-3.1c0,0,8.5-7.2,14.8-1.7
						C912.6,231.8,913.8,232.9,914.9,231.8L914.9,231.8z"/>
					<path class="st20" d="M859.9,217.4l2,0.9c0,0-0.2-4.8,7.6-3.3c0,0,8.6,0.5,11.1-0.9l10.5-2.9c0,0-1.1-13.6-3.7-16.2
						c0,0-4.6-5.2-7.8-5.9h-8.8c0,0-6.9,3.1-8.5,7.4C862.8,196.6,859.9,200.8,859.9,217.4L859.9,217.4z"/>
					<path class="st20" d="M870.8,187.9h9.6l2.9-7.4c0,0,1.1-5-4.6-3.1c0,0-3.3-5-6.9,0.7c0,0-6.7-0.9-4.8,4.3L870.8,187.9z"/>
				</g>
				<path class="st3" d="M876.4,209.9l-6.1-6.9c0,0-0.2-0.2,0-0.4v-1.5c0,0,0.2-0.4,0.4-0.4c0,0,4.6,0.5,5-2h-5c0,0-0.4,0-0.4-0.4
					v-1.3c0,0,0-0.4,0.4-0.4h5c0,0-0.5-1.5-3.9-1.3h-1.1c0,0-0.4,0-0.4-0.4v-1.9c0,0,0-0.4,0.4-0.4h9.9c0,0,0.4,0,0.4,0.4v1.3
					c0,0,0,0.2-0.4,0.4h-2.9c0,0,0.7,1.1,0.9,1.7h2c0,0,0.4,0,0.4,0.4v1.3c0,0,0,0.2-0.4,0.4h-2c0,0-0.2,3.5-4.8,4.1l5.3,6.4
					c0,0,0.4,0.4,0.2,0.5c0,0,0,0.4-0.4,0.4L876.4,209.9C876.5,209.9,876.5,209.9,876.4,209.9L876.4,209.9z"/>
			</g>
			<text transform="matrix(1 0 0 1 853.1992 255.621)" class="st18 st23" id="Revenue_Vellore"></text>
		</g>
		<text transform="matrix(1 0 0 1 635.1846 167.8856)" class="st22 st23">VELLORE</text>
	</g>
</g>

<!--Coimbatore-->		
<g class="svgmap">
	<path class="st29" d="M145.8,502.5c0,0-1,3.5-2.6,3.3c-1.5-0.1-4.6,0-6.3-3.3c-1.7-3.3,4-7.3,6.3-7.7l8.3-5.3c0,0,9.3-8.2,8.8-13.9
		c-0.6-5.8-13.6-10.2-13.6-10.2s-6.5-0.1-8.9-2c-2.1-1.8-7-5.2-6.7-11.1l0.6-12.4h-9.1l-2.7,0.6l-1.4,1l-0.9,1.3v2.3l-2.1,2.6
		l-0.9,1.4l-1.3,1.4L112,452l-0.6,0.6h-1.5c0,0-1.5-0.4-1.5-0.7V443l-3.3-0.1l-1,0.3l-1,1.4l-1,1.5l-1.7,1c0,0-1.4,0.4-2,0.4
		s-6.5,0.1-6.5,0.1v-13.3l5.5-6.8l-1.8-1.7l-1.7-1.2l-2.6-1.5l0.7-3.9l8.2-0.6l0.7,5l16.2-0.6l-0.4-3l4.7-0.6l1-6.5l13.3-0.6v-3.9
		l3.9-0.7l-0.3-6.8l5.8-1.3l-0.1-4.9h7.9l0.4,4.6l5,0.9l0.1,8.3l4.7,0.9l1.3,3.3v3.5l1.4,0.6l2.4,0.4l2.1-2.9c0,0,1.3-0.7,1.7-0.9
		c0.4-0.1,2.3-0.4,2.4,0.3c0.1,0.7,0.7,2.3,0.7,2.9c0,0.6,0.1,1.7,0,2c-0.1,0.3-1.3,1,0.7,1s7-0.1,7-0.1l1.5-1l1.8-2.1V415
		c0,0-0.1-0.6,1.3-0.7c1.4-0.1,20-0.1,20-0.1l0.9,3l1.3,1.7l2.6,1l9.1-0.4l4,0.5l0.7,0.1l3,1.1l9.3,1.5l0,1.8l-0.5,1l-0.5,0.9
		l-0.7,1.1l-0.4,1.1c0,0,0.1-0.2,0.1,0.3c0,0.4-0.3-0.3-0.2,0.3c0.1,0.4-0.1,0,0.2,0s1,0.3,1.1,0.3c0.1,0,2.9-0.1,2.9-0.1h8
		c0,0,1,0.3,1.4,0.6c0.4,0.3,2.7,1.6,2.9,1.9c0.1,0.1,1,1.6,1.2,2.2c0.1,0.4,0.5,1.1,0.5,1.7c0,0.6-0.6,1.2-0.9,1.3
		c-0.3,0.1-1.5,0.1-2.2,0.2c-0.7,0.1,0,0.6-0.5,1c-0.6,0.3-1.6,0.6-1.6,0.6l1.2,1.5c0,0,1,1.5,1.5,2.3c0.6,0.7,2.4,3.9,2.4,4.1
		s0.4,2.9,0.4,3.5c0,0.4,0.6,4.1,0,4.3c-0.6,0.1-0.9,0.1-1.5,0.9c-0.6,0.6-1.7,2.1-1.8,3c-0.1,0.9-0.6,1.3-0.7,1.7
		c0,0.4-1.3,3.6-1.4,3.9c-0.1,0.3-0.6,2.1-0.7,2.7c-0.1,0.6-0.6,1.4-0.6,1.7s-0.6,2.9-0.6,2.9s1.8,2.9,5.2,2.7l6.8-4l2.6-0.6
		l2.3-1.2l11.2,0.4l5.1-0.3l1.3,2.1l1.3,2.9l0.4,3.9l0.9,1.8l1.8,1.2c0,0,1.8,0.4,2.1,0.4h1.7l1.5,1l0.6,0.4c0,0,0.2,1.1,0.5,1.1h2
		c0.3,0,1.7-2.4,1.7-2.4l2.6-1.2l4.9-0.1l-0.3,1L303,481l-2.1,0.4l-1.5,0.9l-0.6,1c0,0,0,1.2,0.1,1.5c0.1,0.4,0.6,1.2,0.9,1.2
		s1.3,0.1,1.8,0.6c0.6,0.4,0.7,0.9,0.7,0.9l3.6-0.4c0,0,2.1-0.6,3.5-0.6c1.3,0,1.4,0.3,2.4,0c1-0.1,1.7-0.3,2.1-0.4
		c0.3-0.1,2-1.8,2-1.8l2.4-0.3c0,0,0.3,0.4,0.4,1.2c0.1,0.6,1,2,1,2.4v2c0,0,0.1,1.4-1,2s-1.3,0.6-1.3,0.6l0.9,1.2
		c0,0,1.8,0.9,2,0.9s4.7,2.1,4.7,2.1h4.5l0.4-1v-6.4l0.9-3.5l4.1-1.4l0.9,2c0,0,0.9,2.7,0,3.3c-0.9,0.6-1.4,2-1.4,2s1.3,0.7,1.7,1
		c0.4,0.3,1.4-0.3,1.3,1.3c-0.1,1.5-1.4,2.9-1.3,3.8c0.1,1,0.7,4.4,0.7,4.4s0.4,0.1,1.4,1.3c1,1.2,2.9,5,3.5,5.5
		c0.6,0.5,2.1,0.7,2.1,1.8c0,1.2,0.9,3.5,0,4.4c-0.9,1.2-3.3,3.8-3.3,3.8l-0.6,3.6c0,0,3.5-0.9,5.3,1c2,1.8,3.6,1.2,3.6,1.2
		s0.3-0.4,0.7,0.1c0.4,0.6,2.6,3.2,2.6,3.2l0.6,1.2l2.1,2l2.4,2.1l1,9.7l5.3,1.5l0.7,3.8l-5.6,1.7l-0.4,4.7l-7,1.2l-1-2.1l-1.5,3.3
		l-3.8,1.7c0,0-0.9,1.7-0.9,2.4c0,0.7-0.7,2.4-0.7,2.4s-2-1.4-2.4,0c-0.4,1.4-0.6,2.4-1.2,2.9c-0.6,0.4-2.4,0.9-2.4,0.9l-1.2,2.1
		c0,0-1.3,2.4-2.1,2.7c-0.9,0.3-3.9-0.1-4.4,0.3c-0.6,0.4-2.9,1.2-3,1.5c-0.1,0.4-0.1,1.8-0.1,1.8l0.6,2.1l3,3.9
		c0,0,0.4,1.4,0.4,3.5c0,2,0.3,4.6-0.4,5.3c-0.7,0.7-1.7,2.4-1.7,3s-0.4,0.9-1.2,3.6c-0.7,2.9,0.6,6.5,0.6,6.5s1.3,1.3,0.6,5.2
		c-0.7,3.9,0.1,4.6,0.1,4.6l2.1,2.6l1.5,0.9l1.7,1.3l2.1,1l2.1,1.8l2.3,1.2c0,0,1.2,1.3,1.2,1.4c0,0.2,0.9,1.2,0.9,1.2l1.2,1.4
		c0,0,0.4,0.9,0.3,1.5c-0.1,0.7-0.3,1.5-0.9,2.1c-0.6,0.6-1,1.2-1.4,1.4c-0.4,0.3-0.9,0.6-1.2,0.9s-1.4,1.4-1.4,1.4
		s-0.3,2.3-0.3,2.9s0.1,1.5,0,2c-0.3,0.6-0.6,1.4-0.6,1.7c-0.1,0.3-0.1,0.9-0.1,1c0,0.1-0.4,0.7-0.4,0.7l0.4,0.6
		c0,0,1.7,0.4,1.8,0.6h1.7c0.4,0,0.6-0.4,0.9,0c0.3,0.4,0.9,1,0.9,1.4c0,0.4-0.1,0.6,0,1.3c0.1,0.7,0.3,1.2,0.3,2.1
		s-0.1,2.4-0.4,2.7c-0.1,0.4-0.9,0.9-1,1.3s-1,1.8-1,1.8l-0.4,2.9c0,0-3.2,0.3-3.5,0.3h-1.8l0.1,4.7l-6.5,0.4h-1.5l-0.1,12.7
		l2.4,1.3l0.6,2.6l-0.4,10.8l2.9,0.9l0.1,4.1l-4.9,0.9l-0.1,5h-9.3l-3.8-0.4l-0.6-2.3l-0.1-1.3l-1.2-0.3l-3.5-1.2l-0.9-1.2l-0.3-3
		l-1.7-1.2c0,0-0.7-3.2-0.7-4.1c0-1-0.7-2.6-0.7-2.6s-1.5-1.2-1.8-1.4c-0.1-0.1-2-1.2-2-1.2s-1-1.4-1.5-1.7
		c-0.6-0.3-2.6-1.7-2.6-1.7s-2-0.1-2.1-0.1c-0.1,0-2.7,0.9-3.2,1.2c-0.4,0.4-4.6,2.1-5,2.4c-0.4,0.1-2,1.7-2,1.7s-1.2,1.4-1.4,1.5
		c-0.3,0.1-1.8,0.9-2.3,0.9c-0.4,0-3.6-0.1-5.2-0.1c-1.5,0-3.2,0.1-3.8,0.1c-0.4,0.1-1.7,0.4-2,0.7c-0.3,0.3-0.9,1.2-1.3,1.8
		c-0.4,0.7-2.7,2.6-3.2,2.9c-0.4,0.3-1.4,0.4-1.7,0.6c-0.1,0.1-0.6,1.8-0.9,2.6c-0.3,0.7-1,2.6-1,2.6l-0.9,1.2l-3.1,1.8l-2.3,0.3
		c0,0-0.1,0.7-0.3,1.5c-0.1,0.7-1,2.6-1.2,2.9c-0.1,0.1-0.4,3.3-0.4,3.3h-11.5l-0.1-5.6h-2.1l-2.1,0.6l-1,2.3l-1.7-1.2l-1.8-1.8
		c0,0-1.2-1.4-1.3-1.7s-1.4-2.3-1.4-2.4s3.2-2.1,3.2-2.1l0.4-5.8l-13.5-0.4l-0.4-6.3l0.4-1.8l2.6-0.9l-0.4-5.6l-2.3-1.4l-0.4-7.1
		l-2.1-1l-0.1-12.6l2.3-1.8l0.7-10.2l2.7-1.8l0.1-11.5l-5.9-0.1v-4.4l16.5-0.9v-8.9l-0.4-7l-2.3-3.8l-2.1-1.8L217,584.1l-1.8-3.8
		l-2.1-8.2l-0.6-7l0.1-12.4l-1.8-7.7l-1.2-3l-3-3.5l-3-3.9l-4.9-3.5l-1.4-5.3l2.1-9.9l-1-7.1l-2.4-5.8l-0.6-5c0,0-1.4-1.5-1.7-1.5
		c-0.4,0-2.9-0.1-2.9-0.1s-1-0.9-1.7,0.3c-0.9,1.2-1.2,1.5-1.7,2.4c-0.6,0.9-1,1.5-1.7,2.1c-0.7,0.6-1.4,0.9-2.6,1.4
		c-1.3,0.6-3,1-3,1s-1.4,0.1-2.3,0.6c-0.9,0.4-2,0.7-2.9,0.7s-1.5,0-2.6-0.1c-1-0.1-1.7-0.3-3-0.3c-1.3,0-1.4,0.3-1.7,0
		c-0.4-0.3-0.9-1-1.7-1.5s1-0.1-0.9-0.6c-1.8-0.4-1.5-0.3-2.1-0.3c-0.6,0,0.1-1-1.8,0.7c-2,1.7,1,1.4-2.6,1.7c-3.6,0.3-5,0-5,0
		l-1.8,0.3l-2.9-5.2l-2.4,1.3v1.5L145.8,502.5L145.8,502.5L145.8,502.5z"/>
	<g>
		<g class="st50">
			<circle cx="216.6" cy="451" r="7.3"/>
			<circle cx="234.7" cy="454.5" r="5.6"/>
			<circle cx="198.2" cy="454.5" r="5.6"/>
			<path d="M192.5,461.7c0,0,2.8,5.6,9.6,1.8c0,0-1.7,4.7-1.1,12.1h-13.5C187.5,475.7,186.4,465.6,192.5,461.7L192.5,461.7z"/>
			<path d="M240.3,461.7c0,0-2.8,5.6-9.6,1.8c0,0,1.7,4.7,1.1,12.1h13.5C245.2,475.7,246.3,465.6,240.3,461.7L240.3,461.7z"/>
			<path d="M209.1,459.1c0,0,6.2,9,14.8,0.1c0,0,8.6,2,5.9,21h-26.4C203.4,480.1,200.1,464.2,209.1,459.1L209.1,459.1z"/>
		</g>
		<text transform="matrix(1 0 0 1 194.2363 497.9398)" class="st18 st30" id="Consumers_Coimbatore"></text>
	</g>
	<g class="st50">
		<g>
			<polygon points="258.3,517.3 238.9,533.5 247.8,536.3 241.7,550.4 260.9,534.9 252.1,532.6"/>
			<path d="M233.2,538.6c0.1-1.6-3.6-18.8,17.8-22.8c0,0-1,1.6-0.4,2.4c1,1,4.9-2.1,4.7-3.7c-0.1-1.5-3.6-4.7-4.9-3.5
				c-0.5,0.5,0.4,2,0.4,2s-23.4,1.5-20.3,26C230.7,539.8,233.1,541.4,233.2,538.6L233.2,538.6z"/>
			<path d="M259.3,517.6c1.2,1,17.2,8.6,7.3,28c0,0-0.7-1.8-1.6-1.7c-1.5,0.3-1.2,5.2,0.1,6c1.3,0.8,5.8,0,5.7-1.7
				c-0.1-0.7-1.8-1-1.8-1s12.9-19.6-8.4-31.9C259.7,515,257.2,515.7,259.3,517.6L259.3,517.6z"/>
			<path d="M261.5,550.9c-1.3,0.5-13.9,10.4-25.3-5.5c0,0,1.7,0.1,2-0.7c0.4-1.3-3.7-3.2-4.9-2.4c-1.2,0.7-2.4,4.7-1,5.3
				c0.7,0.3,1.5-1.2,1.5-1.2s10.4,18.3,29,6.3C263.4,552.3,263.8,549.9,261.5,550.9L261.5,550.9z"/>
		</g>
		<text transform="matrix(1 0 0 1 221.0454 572.598)" class="st18 st31" id="Consumption_Coimbatore"></text>
	</g>
	<g>
		<g>
			<path class="st1" d="M283.3,584.2h-9.5c0,0-1.3-0.5,0-3.5c0,0,1.2-3,4.7-3.5h31.1c0,0,5,0.7,5.2,5v29.9H325c0,0,1.7,4.7-4.1,6.7
				l-31.4,0.3c0,0-4.5-0.3-5.8-5.3L283.3,584.2L283.3,584.2z"/>
			<path class="st1" d="M324.8,612.3c0,0-23,0.4-29.8,0.1c-2,0-1.6,7.4-7.8,6.1"/>
			<path class="st1" d="M278.9,577.1c0,0,4.4,0.4,4.4,7.4"/>
			<path class="st20" d="M309.7,586.4H300c-0.1,0-0.4-0.1-0.4-0.4v-0.7c0-0.1,0.1-0.4,0.4-0.4h9.7c0.1,0,0.4,0.1,0.4,0.4v1
				C309.9,586.2,309.8,586.4,309.7,586.4L309.7,586.4z"/>
			<path class="st20" d="M309.7,591.5H300c-0.1,0-0.4-0.1-0.4-0.4v-1c0-0.1,0.1-0.4,0.4-0.4h9.7c0.1,0,0.4,0.1,0.4,0.4v1
				C309.9,591.4,309.8,591.5,309.7,591.5z"/>
			<path class="st20" d="M309.7,597.1h-20.4c-0.1,0-0.4-0.1-0.4-0.4v-1c0-0.1,0.1-0.4,0.4-0.4h20.4c0.1,0,0.4,0.1,0.4,0.4v1
				C309.9,596.9,309.8,597.1,309.7,597.1z"/>
			<path class="st20" d="M309.7,602.1h-20.4c-0.1,0-0.4-0.1-0.4-0.4v-1c0-0.1,0.1-0.4,0.4-0.4h20.4c0.1,0,0.4,0.1,0.4,0.4v1
				C309.9,602,309.8,602.1,309.7,602.1z"/>
			<path class="st20" d="M309.7,607.7h-20.4c-0.1,0-0.4-0.1-0.4-0.4v-1c0-0.1,0.1-0.4,0.4-0.4h20.4c0.1,0,0.4,0.1,0.4,0.4v1
				C309.9,607.5,309.8,607.7,309.7,607.7z"/>
		</g>
		<text transform="matrix(1 0 0 1 275.3945 637.0682)" class="st18 st31" id="Billed_Coimbatore"></text>
	</g>
	<g>
		<g class="st50">
			<g>
				<path d="M281.4,658.8l4.7-6.6c0,0,0.4-0.8-0.3-1.3l-8.1-5.2c0,0-4.4-2.5-10.7-1c0,0-9,2.8-14.6,3.7
					c-2,0.3-5,0-7.8-0.3c-0.8,0-2.8,1-1.5,2.7c0,0,5.2,3.3,16.4,0.8c0,0,3.6-0.7,0.5,1c0,0-10.4,2.8-17.2-1c0,0-12.6-5.4-14.9-3.3
					c0,0-1.7,1,0.8,1.8c0,0,8.1,2.4,11,5.4c0,0,12.6,7.2,18.4,7.3c0,0,4.2,1,10.2-2.4c0,0,6.5-5.5,11.4-1.3
					C279.7,658.8,280.6,659.6,281.4,658.8L281.4,658.8z"/>
				<path class="st20" d="M239.1,647.7l1.6,0.7c0,0-0.1-3.7,5.8-2.5c0,0,6.6,0.4,8.5-0.7l8.1-2.2c0,0-0.8-10.4-2.8-12.4
					c0,0-3.6-4-6-4.5h-6.7c0,0-5.3,2.4-6.5,5.7C241.3,631.8,239.1,635,239.1,647.7L239.1,647.7z"/>
				<path class="st20" d="M247.5,625.1h7.4l2.2-5.7c0,0,0.8-3.8-3.6-2.4c0,0-2.5-3.8-5.3,0.5c0,0-5.2-0.7-3.7,3.3L247.5,625.1
					L247.5,625.1z"/>
			</g>
			<path class="st3" d="M251.8,642l-4.7-5.3c0,0-0.1-0.1,0-0.3v-1.2c0,0,0.1-0.3,0.3-0.3c0,0,3.6,0.4,3.8-1.6h-3.8
				c0,0-0.3,0-0.3-0.3v-1c0,0,0-0.3,0.3-0.3h3.8c0,0-0.4-1.2-3-1h-0.8c0,0-0.3,0-0.3-0.3v-1.5c0,0,0-0.3,0.3-0.3h7.7
				c0,0,0.3,0,0.3,0.3v1c0,0,0,0.1-0.3,0.3h-2.2c0,0,0.5,0.8,0.7,1.3h1.6c0,0,0.3,0,0.3,0.3v1c0,0,0,0.1-0.3,0.3h-1.6
				c0,0-0.1,2.7-3.7,3.2l4.1,4.9c0,0,0.3,0.3,0.1,0.4c0,0,0,0.3-0.3,0.3L251.8,642C251.9,642,251.9,642,251.8,642L251.8,642z"/>
		</g>
		<text transform="matrix(1 0 0 1 233.9971 677.0985)" class="st18 st31" id="Revenue_Coimbatore"></text>
	</g>
	<text transform="matrix(1 0 0 1 111.9707 436.6669)" class="st21 st32">COIMBATORE</text>
</g>

<!--Chennai South-->		
<g class="svgmap2">
	<path class="st33" d="M951.9,152.8l-6.6,6.2l-3,1.7h-6.2l-5.6-1l-4.7-1.3l-5,0.1l-1.7-0.6l-3.6-2.6l-1.5-2.7l-2.3-3.5l-1.2-3.9
		l-1-5.5l-0.7-3.8l-3.2-5.3v-1.5l1.7-4.3l4.3-4.2l7.3-8.3l5.2-6.2l7.7-3.9l3.9-0.8l2,1.1c0,0,2.4,1,2.7,1.7s0.9,1.7,1.3,2.7
		s1.5,2,1.5,2l0.1,1.3c0,0,1.4,1.5,2.1,1.8c0.7,0.3,2.3,0.4,2.7,1.3c0.4,0.9,1.7,2.6,2.7,3c1,0.4,3.8,3.3,3.8,3.3l1,3.9
		c0,0,1.8,2,1.8,2.9c0,0.9,0.1,3,0,4c-0.1,1-0.9,2.1-1.2,2.9c-0.3,0.7-0.6,3.2-0.9,4.3c-0.3,1.3-0.1,3.6-0.5,4.1s-0.9,2-1.2,3.2
		c-0.3,1.2-1,4.4-1,4.4L951.9,152.8L951.9,152.8z"/>
	<g>
		<g>
			<g class="st50">
				<circle cx="922.7" cy="122" r="1.1"/>
				<circle cx="925.6" cy="122.5" r="0.9"/>
				<circle cx="919.8" cy="122.5" r="0.9"/>
				<path d="M918.9,123.7c0,0,0.4,0.9,1.5,0.3c0,0-0.3,0.7-0.2,1.9h-2.1C918.1,125.9,917.9,124.3,918.9,123.7L918.9,123.7z"/>
				<path d="M926.5,123.7c0,0-0.4,0.9-1.5,0.3c0,0,0.3,0.7,0.2,1.9h2.1C927.2,125.9,927.4,124.3,926.5,123.7L926.5,123.7z"/>
				<path d="M921.5,123.3c0,0,1,1.4,2.3,0c0,0,1.4,0.3,1,3.3h-4.2C920.6,126.6,920.1,124.1,921.5,123.3L921.5,123.3z"/>
			</g>
			<text transform="matrix(1 0 0 1 915.1367 131.871)" class="st18 st5 st34" id="Consumers_ChennaiSouth"></text>
		</g>
		<g class="st50">
			<g>
				<polygon points="945,120.7 942.3,123 943.5,123.3 942.7,125.3 945.3,123.2 944.2,122.8"/>
				<path d="M941.5,123.7c0-0.2-0.5-2.6,2.5-3.2c0,0-0.2,0.2-0.1,0.3c0.2,0.2,0.7-0.3,0.7-0.5c0-0.2-0.5-0.6-0.7-0.5
					c-0.1,0.1,0.1,0.3,0.1,0.3s-3.3,0.2-2.8,3.6C941.2,123.8,941.5,124.1,941.5,123.7L941.5,123.7z"/>
				<path d="M945.2,120.7c0.2,0.2,2.4,1.2,1,3.9c0,0-0.1-0.3-0.2-0.2c-0.2,0.1-0.2,0.7,0,0.8c0.2,0.1,0.8,0,0.8-0.2
					c0-0.1-0.3-0.1-0.3-0.1s1.8-2.7-1.2-4.5C945.2,120.4,944.8,120.5,945.2,120.7L945.2,120.7z"/>
				<path d="M945.5,125.4c-0.2,0.1-1.9,1.4-3.5-0.8c0,0,0.2,0,0.3-0.1c0.1-0.2-0.5-0.5-0.7-0.3c-0.2,0.1-0.3,0.7-0.1,0.7
					c0.1,0.1,0.2-0.2,0.2-0.2s1.5,2.5,4,0.9C945.7,125.5,945.8,125.2,945.5,125.4L945.5,125.4z"/>
			</g>
			<text transform="matrix(1 0 0 1 934.6367 131.2645)" class="st18 st5 st34" id="Consumption_ChennaiSouth"></text>
		</g>
		<g>
			<g>
				<path class="st35" d="M918.4,136.1h-1.7c0,0-0.2-0.1,0-0.6c0,0,0.2-0.5,0.8-0.6h5.5c0,0,0.9,0.1,0.9,0.9v5.3h1.8
					c0,0,0.3,0.8-0.7,1.2l-5.5,0.1c0,0-0.8-0.1-1-0.9L918.4,136.1L918.4,136.1z"/>
				<path class="st35" d="M925.8,141.1c0,0-4.1,0.1-5.2,0c-0.4,0-0.3,1.3-1.4,1.1"/>
				<path class="st35" d="M917.7,134.9c0,0,0.8,0.1,0.8,1.3"/>
				<path class="st36" d="M923.1,136.5h-1.7c0,0-0.1,0-0.1-0.1v-0.1c0,0,0-0.1,0.1-0.1h1.7c0,0,0.1,0,0.1,0.1L923.1,136.5
					C923.1,136.5,923.1,136.5,923.1,136.5z"/>
				<path class="st36" d="M923.1,137.4h-1.7c0,0-0.1,0-0.1-0.1v-0.1c0,0,0-0.1,0.1-0.1h1.7c0,0,0.1,0,0.1,0.1L923.1,137.4
					C923.1,137.4,923.1,137.4,923.1,137.4z"/>
				<path class="st36" d="M923.1,138.4h-3.6c0,0-0.1,0-0.1-0.1v-0.1c0,0,0-0.1,0.1-0.1h3.6c0,0,0.1,0,0.1,0.1L923.1,138.4
					C923.1,138.4,923.1,138.4,923.1,138.4z"/>
				<path class="st36" d="M923.1,139.3h-3.6c0,0-0.1,0-0.1-0.1v-0.1c0,0,0-0.1,0.1-0.1h3.6c0,0,0.1,0,0.1,0.1L923.1,139.3
					C923.1,139.2,923.1,139.3,923.1,139.3z"/>
				<path class="st36" d="M923.1,140.3h-3.6c0,0-0.1,0-0.1-0.1v-0.1c0,0,0-0.1,0.1-0.1h3.6c0,0,0.1,0,0.1,0.1L923.1,140.3
					C923.1,140.3,923.1,140.3,923.1,140.3z"/>
			</g>
			<text transform="matrix(1 0 0 1 914.4336 148.1259)" class="st18 st5 st34" id="Billed_ChennaiSouth"></text>
		</g>
		<g>
			<g class="st50">
				<g>
					<path d="M947.8,142.1l0.9-1.2c0,0,0.1-0.1-0.1-0.2l-1.5-0.9c0,0-0.8-0.4-1.9-0.2c0,0-1.6,0.5-2.6,0.7
						c-0.4,0.1-0.9,0-1.4-0.1c-0.1,0-0.5,0.2-0.3,0.5c0,0,0.9,0.6,2.9,0.1c0,0,0.7-0.1,0.1,0.1c0,0-1.8,0.5-3.1-0.2
						c0,0-2.3-0.9-2.7-0.6c0,0-0.3,0.1,0.1,0.3c0,0,1.5,0.4,2,0.9c0,0,2.3,1.3,3.3,1.3c0,0,0.7,0.2,1.8-0.4c0,0,1.2-1,2-0.2
						C947.5,142,947.6,142.2,947.8,142.1L947.8,142.1z"/>
					<path class="st20" d="M940.2,140.1l0.3,0.1c0,0,0-0.7,1-0.4c0,0,1.2,0.1,1.5-0.1l1.5-0.4c0,0-0.1-1.9-0.5-2.2
						c0,0-0.7-0.7-1.1-0.8h-1.2c0,0-0.9,0.4-1.2,1C940.6,137.2,940.2,137.8,940.2,140.1L940.2,140.1z"/>
					<path class="st20" d="M941.7,136h1.3l0.4-1c0,0,0.1-0.7-0.7-0.4c0,0-0.4-0.7-0.9,0.1c0,0-0.9-0.1-0.7,0.6L941.7,136z"/>
				</g>
				<path class="st3" d="M942.4,139.1l-0.8-0.9v-0.3c0,0,0-0.1,0.1-0.1c0,0,0.7,0.1,0.7-0.3h-0.7c0,0-0.1,0-0.1-0.1v-0.2
					c0,0,0-0.1,0.1-0.1h0.7c0,0-0.1-0.2-0.5-0.2h-0.1c0,0-0.1,0-0.1-0.1v-0.3c0,0,0-0.1,0.1-0.1h1.4c0,0,0.1,0,0.1,0.1v0.2l-0.1,0.1
					h-0.4c0,0,0.1,0.1,0.1,0.2h0.3c0,0,0.1,0,0.1,0.1v0.2l-0.1,0.1h-0.3c0,0,0,0.5-0.7,0.6l0.7,0.9c0,0,0.1,0.1,0,0.1
					c0,0,0,0.1-0.1,0.1L942.4,139.1C942.5,139.1,942.5,139.1,942.4,139.1L942.4,139.1z"/>
			</g>
			<text transform="matrix(1 0 0 1 936.3213 148.0394)" class="st18 st5 st34" id="Revenue_ChennaiSouth"></text>
		</g>
		<text transform="matrix(1 0 0 1 922.6855 111.5433)" class="st18 st22 st37">CHENNAI </text>
		<text transform="matrix(1 0 0 1 925.835 115.9633)" class="st18 st22 st37">SOUTH</text>
	</g>
</g>

<!--Chennai North-->	
<g class="svgmap2">
	<path class="st38" d="M935.7,102.1l11.2-3.8l0.8-3.7l0.1-2.3L951,88l2.7-5l1-1.8l6.6-2.4l4.2-1.6l2.1-0.7l-0.3,8.3
		c0,0,0.3,12,0,12.4s-1.4,3.9-1.7,4.1c-0.3,0.3-1.5,2.9-1.7,3.3c-0.1,0.4-1.8,4.6-1.8,4.6s-0.6,2.3-0.7,3.8c-0.1,1.4,1,9.7,1,9.7
		l-1,6l-1.4,1.5l-2.3,1.2l0.1-3.9l-0.9-2.4l-1.2-1.5l-0.9-3.6c0,0-1.8-1.7-2.3-2.1c-0.4-0.4-3.5-0.9-3.2-1.6
		c0.3-0.7-2.8-3.5-2.8-3.5l-2.6-1.5l-0.7-1.8l-1.7-2.4L935.7,102.1L935.7,102.1z"/>
	<g>
		<g>
			<g class="st50">
				<circle cx="957.3" cy="88.7" r="0.8"/>
				<circle cx="959.3" cy="89" r="0.6"/>
				<circle cx="955.2" cy="89" r="0.6"/>
				<path d="M954.6,89.9c0,0,0.3,0.6,1.1,0.2c0,0-0.2,0.5-0.1,1.4H954C954,91.5,953.9,90.3,954.6,89.9L954.6,89.9z"/>
				<path d="M960,89.9c0,0-0.3,0.6-1.1,0.2c0,0,0.2,0.5,0.1,1.4h1.5C960.6,91.5,960.6,90.3,960,89.9L960,89.9z"/>
				<path d="M956.4,89.5c0,0,0.7,1,1.7,0c0,0,1,0.2,0.7,2.4h-3C955.8,91.9,955.4,90.1,956.4,89.5z"/>
			</g>
			<text transform="matrix(1 0 0 1 951.8535 95.7313)" class="st39 st5 st40" id="Consumers_ChennaiNorth"></text>
		</g>
		<g class="st50">
			<g>
				<polygon points="957.8,97.1 956,98.6 956.8,98.9 956.3,100.2 958,98.7 957.2,98.5 				"/>
				<path d="M955.5,99.1c0-0.2-0.3-1.7,1.7-2.1c0,0-0.1,0.2,0,0.2c0.1,0.1,0.5-0.2,0.5-0.3c0-0.2-0.3-0.4-0.5-0.3c0,0,0,0.2,0,0.2
					s-2.2,0.2-1.9,2.4C955.2,99.2,955.5,99.3,955.5,99.1L955.5,99.1z"/>
				<path d="M957.9,97.1c0.1,0.1,1.6,0.8,0.7,2.6c0,0-0.1-0.2-0.2-0.2c-0.2,0-0.1,0.5,0,0.6c0.1,0.1,0.5,0,0.5-0.2
					c0-0.1-0.2-0.1-0.2-0.1s1.2-1.8-0.8-3C957.9,96.8,957.7,96.9,957.9,97.1L957.9,97.1z"/>
				<path d="M958.1,100.2c-0.1,0-1.3,0.9-2.3-0.5c0,0,0.2,0,0.2-0.1c0-0.1-0.3-0.3-0.5-0.2s-0.2,0.5-0.1,0.5c0.1,0,0.2-0.1,0.2-0.1
					s1,1.7,2.7,0.6C958.3,100.3,958.3,100.1,958.1,100.2L958.1,100.2z"/>
			</g>
			<text transform="matrix(1 0 0 1 950.9004 104.1185)" class="st39 st5 st41" id="Consumption_ChennaiNorth"></text>
		</g>
		<g>
			<g>
				<path class="st35" d="M944.8,100.7h-0.9c0,0-0.1,0,0-0.4c0,0,0.1-0.3,0.4-0.4h3c0,0,0.5,0.1,0.5,0.5v2.9h1c0,0,0.2,0.4-0.4,0.7
					l-3,0c0,0-0.4,0-0.5-0.5L944.8,100.7L944.8,100.7z"/>
				<path class="st35" d="M948.8,103.4c0,0-2.2,0-2.9,0c-0.2,0-0.2,0.7-0.7,0.6"/>
				<path class="st35" d="M944.4,100c0,0,0.4,0,0.4,0.7"/>
				<path class="st36" d="M947.3,100.9h-0.9c0,0,0,0,0,0v-0.1c0,0,0,0,0,0h0.9c0,0,0,0,0,0L947.3,100.9
					C947.3,100.9,947.3,100.9,947.3,100.9z"/>
				<path class="st36" d="M947.3,101.4h-0.9c0,0,0,0,0,0v-0.1c0,0,0,0,0,0h0.9c0,0,0,0,0,0L947.3,101.4
					C947.3,101.4,947.3,101.4,947.3,101.4z"/>
				<path class="st36" d="M947.3,101.9h-2c0,0,0,0,0,0v-0.1c0,0,0,0,0,0h2c0,0,0,0,0,0L947.3,101.9
					C947.3,101.9,947.3,101.9,947.3,101.9z"/>
				<path class="st36" d="M947.3,102.4h-2c0,0,0,0,0,0v-0.1c0,0,0,0,0,0h2c0,0,0,0,0,0L947.3,102.4
					C947.3,102.4,947.3,102.4,947.3,102.4z"/>
				<path class="st36" d="M947.3,103h-2c0,0,0,0,0,0v-0.1c0,0,0,0,0,0h2c0,0,0,0,0,0L947.3,103C947.3,102.9,947.3,103,947.3,103z"/>
			</g>
			<text transform="matrix(1 0 0 1 942.5996 107.2289)" class="st39 st5 st42" id="Billed_ChennaiNorth"></text>
		</g>
		<g>
			<g class="st50">
				<g>
					<path class="st20" d="M958.6,111.8l0.6-0.8c0,0,0-0.1,0-0.2l-1-0.7c0,0-0.6-0.3-1.3-0.2c0,0-1.1,0.4-1.8,0.5c-0.3,0-0.6,0-1,0
						c-0.1,0-0.4,0.2-0.2,0.4c0,0,0.7,0.4,2.1,0.1c0,0,0.5,0,0,0.1c0,0-1.3,0.4-2.2-0.2c0,0-1.6-0.7-1.9-0.4c0,0-0.2,0.1,0.1,0.2
						c0,0,1,0.3,1.4,0.7c0,0,1.6,0.9,2.3,0.9c0,0,0.5,0.2,1.3-0.3c0,0,0.8-0.7,1.4-0.2C958.4,111.8,958.5,111.9,958.6,111.8
						L958.6,111.8z"/>
					<path class="st20" d="M953.3,110.4l0.2,0c0,0,0-0.5,0.7-0.3c0,0,0.8,0,1.1,0l1-0.3c0,0-0.1-1.3-0.4-1.5c0,0-0.5-0.5-0.8-0.6
						h-0.9c0,0-0.7,0.3-0.8,0.7C953.6,108.4,953.3,108.8,953.3,110.4L953.3,110.4z"/>
					<path class="st20" d="M954.4,107.6h0.9l0.3-0.7c0,0,0.1-0.5-0.5-0.3c0,0-0.3-0.5-0.7,0c0,0-0.7,0-0.5,0.4L954.4,107.6
						L954.4,107.6z"/>
				</g>
				<path class="st3" d="M954.8,109.7l-0.5-0.5V109c0,0,0,0,0,0c0,0,0.4,0,0.4-0.2h-0.4c0,0,0,0,0,0v-0.1c0,0,0,0,0,0h0.4
					c0,0,0-0.1-0.3-0.1h-0.1c0,0,0,0,0,0v-0.2c0,0,0,0,0,0h0.8c0,0,0,0,0,0v0.1l0,0H955c0,0,0,0.1,0,0.1h0.2c0,0,0,0,0,0v0.1l0,0
					H955c0,0,0,0.3-0.4,0.3l0.4,0.5c0,0,0,0,0,0c0,0,0,0,0,0L954.8,109.7C954.8,109.7,954.8,109.7,954.8,109.7L954.8,109.7z"/>
			</g>
			<text transform="matrix(1 0 0 1 950.5352 116.0595)" class="st39 st5 st43" id="Revenue_ChennaiNorth"></text>
		</g>
		<text transform="matrix(1 0 0 1 955.5225 83.9447)" class="st39 st22 st44">CHENNAI </text>
		<text transform="matrix(1 0 0 1 957.1699 86.41)" class="st39 st22 st44">NORTH</text>
	</g>
</g>

</g>



</svg>


